<?xml version="1.0" encoding="utf-8"?>
<svg width="490px" height="497.5px" viewBox="0 0 490 497.5" version="1.1" xmlns:xlink="http://www.w3.org/1999/xlink" xmlns="http://www.w3.org/2000/svg">
  <defs>
    <path d="M0 0L490 0L490 490L0 490L0 0Z" id="path_1" />
    <clipPath id="mask_1">
      <use xlink:href="#path_1" />
    </clipPath>
  </defs>
  <g id="Folder-icon" transform="scale(0.99999994 0.99999994)">
    <path d="M0 0L490 0L490 490L0 490L0 0Z" id="Background" fill="none" fill-rule="evenodd" stroke="none" />
    <g clip-path="url(#mask_1)">
      <path d="M76.5625 61.25C51.3208 61.25 30.625 81.9458 30.625 107.188L30.625 382.813C30.625 408.054 51.3208 428.75 76.5625 428.75L413.438 428.75C438.679 428.75 459.375 408.054 459.375 382.813L459.375 168.438C459.375 143.196 438.679 122.5 413.438 122.5L208.154 122.5L188.176 85.4151C180.161 70.4615 164.609 61.25 147.742 61.25L76.5625 61.25ZM76.5625 91.875L147.742 91.875C153.364 91.875 158.508 94.9854 161.26 99.8902L173.462 122.5L61.25 122.5L61.25 107.188C61.25 98.5743 67.9492 91.875 76.5625 91.875L76.5625 91.875ZM61.25 153.125L413.438 153.125C422.051 153.125 428.75 159.824 428.75 168.438L428.75 382.813C428.75 391.426 422.051 398.125 413.438 398.125L76.5625 398.125C67.9492 398.125 61.25 391.426 61.25 382.813L61.25 153.125Z" id="Shape" fill="#FFFFFF" fill-rule="evenodd" stroke="none" />
    </g>
  </g>
  <g id="Fragment-II" fill="#FFFFFF" transform="matrix(0.99999994 0 0 0.99999994 116.586914 441.5)">
    <path d="M23.4609 13.2227L3.39844 13.2227Q2.83594 13.2227 2.58984 13.4453Q2.34375 13.668 2.34375 14.1602Q2.34375 14.8398 2.64844 15.6367L5.13281 15.6367Q5.29688 18.8945 5.29688 26.0898Q5.29688 39.543 5.13281 42.8008L3.39844 42.8008Q2.83594 42.8008 2.58984 43.0234Q2.34375 43.2461 2.34375 43.7383Q2.34375 44.418 2.64844 45.2148L13.6641 45.2148Q14.25 45.2148 14.4844 44.9805Q14.7188 44.7461 14.7188 44.1602Q14.7188 43.5039 14.4375 42.8008L10.6641 42.8008Q10.5234 40.1055 10.5 30.4961L21.2344 30.4961Q21.9141 30.4961 22.1484 30.2734Q22.3828 30.0508 22.3828 29.3945Q22.3828 28.3867 22.0781 27.4727L10.5 27.4727Q10.5 18.8945 10.6641 16.2461L12.7031 16.2461Q20.4609 16.2461 24.8906 18.0508Q25.7812 16.5273 25.7812 15.0977Q25.7812 13.9727 25.2891 13.5977Q24.7969 13.2227 23.4609 13.2227ZM224.18 13.2227L234.75 13.2227Q235.031 13.9258 235.031 14.582Q235.031 15.168 234.797 15.4023Q234.562 15.6367 233.977 15.6367L231.844 15.6367Q231.68 18.8945 231.68 26.3711Q231.68 39.543 231.867 42.8008L234.75 42.8008Q235.031 43.5039 235.031 44.1602Q235.031 44.7461 234.797 44.9805Q234.562 45.2148 233.977 45.2148L223.43 45.2148Q223.125 44.418 223.125 43.7383Q223.125 43.2461 223.371 43.0234Q223.617 42.8008 224.18 42.8008L226.312 42.8008Q226.5 39.543 226.5 26.0898Q226.477 18.8945 226.312 15.6367L223.43 15.6367Q223.125 14.8398 223.125 14.1602Q223.125 13.668 223.371 13.4453Q223.617 13.2227 224.18 13.2227ZM251.344 13.2227L240.773 13.2227Q240.211 13.2227 239.965 13.4453Q239.719 13.668 239.719 14.1602Q239.719 14.8398 240.023 15.6367L242.906 15.6367Q243.07 18.8945 243.094 26.0898Q243.094 39.543 242.906 42.8008L240.773 42.8008Q240.211 42.8008 239.965 43.0234Q239.719 43.2461 239.719 43.7383Q239.719 44.418 240.023 45.2148L250.57 45.2148Q251.156 45.2148 251.391 44.9805Q251.625 44.7461 251.625 44.1602Q251.625 43.5039 251.344 42.8008L248.461 42.8008Q248.273 39.543 248.273 26.3711Q248.273 18.8945 248.438 15.6367L250.57 15.6367Q251.156 15.6367 251.391 15.4023Q251.625 15.168 251.625 14.582Q251.625 13.9258 251.344 13.2227ZM194.344 22.2461L192.75 22.2461Q192.141 22.2461 191.883 22.5156Q191.625 22.7852 191.625 23.3711Q191.625 24.168 191.906 25.0117L194.203 25.0117Q194.461 29.2305 194.461 33.7305L194.461 39.2383Q194.461 42.8242 195.926 44.1367Q197.391 45.4492 200.602 45.4492Q203.555 45.4492 204.926 45.0273Q206.297 44.6055 206.297 43.3633Q206.297 42.4492 205.781 41.6758Q203.648 42.707 202.184 42.6367Q200.719 42.5664 199.992 41.3125Q199.266 40.0586 199.266 36.0977L199.266 25.0117L205.969 25.0117Q206.742 25.0117 207 24.7891Q207.258 24.5664 207.258 23.8867Q207.258 23.0195 206.977 22.2461L199.266 22.2461L199.266 21.2852Q199.266 17.8867 198.938 17.3125Q198.609 16.7383 197.918 16.3164Q197.227 15.8945 196.242 15.5898L194.344 22.2461ZM91.7578 29.3477Q91.7578 26.6992 90.4453 24.3555L91.0078 23.6758Q93.6328 24.7305 94.1133 24.7305Q94.5938 24.7305 95.1445 23.5938Q95.6953 22.457 95.6953 21.8477Q95.6953 21.4961 95.4375 21.3438Q95.1797 21.1914 92.3438 21.1914Q91.7578 21.1914 88.7109 22.5742Q86.3438 21.6602 83.5312 21.6602Q78.4453 21.6602 75.9141 24.2969Q73.3828 26.9336 73.3828 31.0586Q73.3828 33.5898 74.3086 35.1602Q75.2344 36.7305 76.7344 37.3398Q74.9062 38.2305 74.0156 39.4141Q73.125 40.5977 73.125 42.0039Q73.125 43.3633 73.8164 44.2891Q74.5078 45.2148 75.6562 45.6836Q74.3203 47.0664 73.5703 48.5547Q72.8203 50.043 72.8203 51.4727Q72.8203 53.3945 74.1562 54.4609Q75.4922 55.5273 79.4297 55.5273Q87.5156 55.5273 91.3711 53.3711Q95.2266 51.2148 95.2266 47.5117Q95.2266 45.0508 93.4102 43.7969Q91.5938 42.543 85.4766 42.543Q79.2656 42.543 78.2812 42.0039Q77.2969 41.4648 77.2969 40.2461Q77.2969 39.2383 78.0234 38.7109Q78.75 38.1836 81.2109 38.1836Q86.6719 38.1836 89.2148 35.7461Q91.7578 33.3086 91.7578 29.3477ZM157.219 23.7227Q155.109 21.6602 150.75 21.6602Q145.5 21.6602 142.559 25.0938Q139.617 28.5273 139.617 34.457Q139.617 40.4805 142.23 43.0234Q144.844 45.5664 150.844 45.5664Q154.102 45.5664 156.691 44.9336Q159.281 44.3008 159.281 42.7305Q159.281 41.6055 158.273 40.5977Q155.25 42.4258 151.734 42.4258Q147.961 42.4258 146.473 40.2461Q144.984 38.0664 144.938 34.2461L155.297 34.2461Q157.828 34.2461 158.578 33.4258Q159.328 32.6055 159.328 30.5195Q159.328 25.7852 157.219 23.7227ZM28.8281 22.375Q28.3359 22.5508 28.3359 23.1836Q28.3359 23.8867 28.6406 24.543Q30.1641 24.543 30.7031 25.6445Q31.2422 26.7461 31.2422 33.6602Q31.2422 39.3086 31.0547 42.8008L29.4375 42.8008Q28.8516 42.8008 28.5938 43.0469Q28.3359 43.293 28.3359 43.8086Q28.3359 44.4648 28.6406 45.2148L38.5547 45.2148Q39.2812 45.2148 39.5391 44.9805Q39.7969 44.7461 39.7969 44.1133Q39.7969 43.4102 39.5156 42.8008L36.2109 42.8008Q36.0469 39.3086 36.0234 32.1133Q36.0234 28.1055 37.3125 26.7812Q38.6016 25.457 40.6875 25.457Q41.5781 26.6523 41.7539 26.7461Q41.9297 26.8398 42.9609 26.6758Q43.9922 26.5117 44.4375 26.207Q44.8828 25.9023 45.1992 24.7539Q45.5156 23.6055 45.5156 22.5977Q45.5156 22.082 45.293 21.9297Q45.0703 21.7773 44.4141 21.7773Q42.4453 21.7773 40.043 22.457Q37.6406 23.1367 35.0391 24.8945Q35.1797 23.0898 35.0391 22.0117Q29.3203 22.1992 28.8281 22.375ZM119.672 30.2148Q119.672 40.0352 119.836 42.8008L122.32 42.8008Q122.625 43.4102 122.625 44.1133Q122.625 44.7461 122.367 44.9805Q122.109 45.2148 121.359 45.2148L113.086 45.2148Q112.805 44.4648 112.805 43.8086Q112.805 43.293 113.051 43.0469Q113.297 42.8008 113.906 42.8008L114.703 42.8008Q114.867 39.3555 114.867 33.168Q114.867 28.3398 113.848 26.7461Q112.828 25.1523 110.555 25.1523Q109.078 25.1523 107.66 26.2539Q106.242 27.3555 106.242 30.2148L106.242 35.1602Q106.242 39.3086 106.406 42.8008L108.305 42.8008Q108.586 43.4102 108.586 44.1133Q108.586 44.7461 108.328 44.9805Q108.07 45.2148 107.344 45.2148L98.8359 45.2148Q98.5312 44.4648 98.5312 43.8086Q98.5312 43.293 98.7891 43.0469Q99.0469 42.8008 99.6328 42.8008L101.25 42.8008Q101.438 39.0742 101.438 33.6602Q101.438 26.7461 100.898 25.6445Q100.359 24.543 98.8359 24.543Q98.5312 23.8867 98.5312 23.1836Q98.5312 22.5508 99.0234 22.375Q99.5156 22.1992 105.234 22.0117Q105.375 23.0898 105.234 24.7773Q107.555 23.2305 109.699 22.5039Q111.844 21.7773 113.672 21.7773Q115.992 21.7773 117.234 22.5859Q118.477 23.3945 118.922 24.6367Q121.031 23.207 123.152 22.4922Q125.273 21.7773 127.055 21.7773Q129.938 21.7773 131.52 23.2188Q133.102 24.6602 133.102 28.7148Q133.102 41.3242 133.465 42.0742Q133.828 42.8242 135.141 42.8008Q135.398 43.4805 135.398 44.1602Q135.398 44.793 135 45.0039Q134.602 45.2148 133.523 45.2148Q130.266 45.2148 129.539 45.1328Q128.812 45.0508 128.555 44.6406Q128.297 44.2305 128.297 43.2695L128.297 33.168Q128.297 28.3398 127.277 26.7461Q126.258 25.1523 123.984 25.1523Q122.508 25.1523 121.09 26.2539Q119.672 27.3555 119.672 30.2148ZM170.391 24.7773Q172.711 23.2305 174.973 22.5039Q177.234 21.7773 179.016 21.7773Q182.133 21.7773 183.715 23.2188Q185.297 24.6602 185.297 28.7148Q185.297 41.3242 185.66 42.0742Q186.023 42.8242 187.336 42.8008Q187.594 43.4805 187.594 44.1602Q187.594 44.793 187.195 45.0039Q186.797 45.2148 185.719 45.2148Q182.461 45.2148 181.734 45.1328Q181.008 45.0508 180.75 44.6406Q180.492 44.2305 180.492 43.2695L180.492 33.168Q180.492 28.3398 179.473 26.7461Q178.453 25.1523 176.18 25.1523Q174.234 25.1523 172.816 26.2539Q171.398 27.3555 171.398 30.2148L171.398 35.1602Q171.398 39.3086 171.562 42.8008L174.164 42.8008Q174.445 43.4102 174.445 44.1133Q174.445 44.7461 174.188 44.9805Q173.93 45.2148 173.203 45.2148L163.992 45.2148Q163.688 44.4648 163.688 43.8086Q163.688 43.293 163.945 43.0469Q164.203 42.8008 164.789 42.8008L166.406 42.8008Q166.594 39.0742 166.594 33.6602Q166.594 26.7461 166.055 25.6445Q165.516 24.543 163.992 24.543Q163.688 23.8867 163.688 23.1836Q163.688 22.5508 164.18 22.375Q164.672 22.1992 170.391 22.0117Q170.531 23.0898 170.391 24.7773ZM62.4609 43.3398Q60.4922 44.4883 58.418 45.0859Q56.3438 45.6836 54.3516 45.6836Q51.1875 45.6836 49.6406 44.1953Q48.0938 42.707 48.0938 39.7773Q48.0938 36.1914 50.6484 34.293Q53.2031 32.3945 58.5469 32.3945L61.9922 32.3945Q61.8516 28.2695 60.8086 26.6523Q59.7656 25.0352 57.1172 25.0352Q55.7109 25.0352 54.4219 25.3164Q53.7422 26.6758 53.6133 26.7695Q53.4844 26.8633 52.2656 27.1797Q51.0469 27.4961 50.5664 27.0625Q50.0859 26.6289 49.582 25.4805Q49.0781 24.332 49.0781 23.6289Q49.0781 23.1602 49.4648 22.9023Q49.8516 22.6445 52.6172 22.2695Q55.3828 21.8945 58.5 21.8945Q62.6484 21.8945 64.6289 23.3242Q66.6094 24.7539 66.6094 28.5742L66.6094 35.793Q66.6094 40.8086 67.043 41.9102Q67.4766 43.0117 68.4844 42.8008Q68.7656 43.3164 68.7656 43.8086Q68.7656 44.6055 67.7695 45.0273Q66.7734 45.4492 65.0859 45.4492Q64.2656 45.4492 63.832 45.25Q63.3984 45.0508 62.4609 43.3398ZM79.1719 25.5859Q80.25 24.332 82.4766 24.332Q84.75 24.332 85.8867 25.7383Q87.0234 27.1445 87.0234 29.9805Q87.0234 33.1914 85.8984 34.3516Q84.7734 35.5117 82.4062 35.5117Q80.1797 35.5117 79.1367 34.2227Q78.0938 32.9336 78.0938 30.1211Q78.0938 26.8398 79.1719 25.5859ZM146.297 26.4766Q147.516 24.8008 149.859 24.8008Q152.109 24.8008 153.281 26.1133Q154.453 27.4258 154.453 29.7461Q154.453 30.707 154.23 31.0586Q154.008 31.4102 152.613 31.5625Q151.219 31.7148 147.375 31.7148L144.961 31.7148Q145.078 28.1523 146.297 26.4766ZM61.9922 35.418Q59.9766 35.0664 57.8203 35.0664Q55.1484 35.0664 54.082 35.957Q53.0156 36.8477 53.0156 38.7695Q53.0156 40.6445 53.9648 41.5938Q54.9141 42.543 56.9062 42.543Q58.4531 42.543 59.7891 41.9336Q61.125 41.3242 61.5586 40.2344Q61.9922 39.1445 61.9922 36.8008L61.9922 35.418ZM77.4258 47.7695Q77.8594 46.7383 78.6797 45.918Q87.1641 45.918 88.7344 46.5742Q90.3047 47.2305 90.3047 48.918Q90.3047 50.8398 88.1602 51.8477Q86.0156 52.8555 81.7969 52.8555Q78.9141 52.8555 77.9531 52.1523Q76.9922 51.4492 76.9922 49.8555Q76.9922 48.8008 77.4258 47.7695Z" />
  </g>
</svg>