<?xml version="1.0" encoding="utf-8"?>
<svg width="588px" height="306px" viewBox="0 0 588 306" version="1.1" xmlns:xlink="http://www.w3.org/1999/xlink" xmlns="http://www.w3.org/2000/svg">
  <path d="M9.49899 1.5L578.501 1.5Q578.697 1.5 578.893 1.50964Q579.09 1.51927 579.285 1.53852Q579.48 1.55776 579.675 1.58658Q579.869 1.61539 580.062 1.6537Q580.254 1.69201 580.445 1.73972Q580.635 1.78743 580.823 1.84444Q581.011 1.90144 581.196 1.96759Q581.381 2.03374 581.562 2.10889Q581.743 2.18403 581.921 2.26799Q582.099 2.35195 582.272 2.44451Q582.445 2.53708 582.613 2.63803Q582.782 2.73898 582.945 2.84808Q583.108 2.95717 583.266 3.07415Q583.424 3.19112 583.576 3.31569Q583.727 3.44027 583.873 3.57214Q584.018 3.70401 584.157 3.84286Q584.296 3.98171 584.428 4.12721Q584.56 4.2727 584.684 4.4245Q584.809 4.57629 584.926 4.73401Q585.043 4.89173 585.152 5.055Q585.261 5.21827 585.362 5.3867Q585.463 5.55513 585.555 5.72831Q585.648 5.90149 585.732 6.079Q585.816 6.25651 585.891 6.43793Q585.966 6.61935 586.032 6.80423Q586.099 6.98912 586.156 7.17703Q586.213 7.36494 586.26 7.55542Q586.308 7.7459 586.346 7.93849Q586.385 8.13108 586.413 8.32532Q586.442 8.51956 586.461 8.71498Q586.481 8.9104 586.49 9.10653Q586.5 9.30266 586.5 9.49902L586.5 296.501Q586.5 296.697 586.49 296.893Q586.481 297.09 586.461 297.285Q586.442 297.48 586.413 297.675Q586.385 297.869 586.346 298.061Q586.308 298.254 586.26 298.445Q586.213 298.635 586.156 298.823Q586.099 299.011 586.032 299.196Q585.966 299.381 585.891 299.562Q585.816 299.743 585.732 299.921Q585.648 300.098 585.555 300.272Q585.463 300.445 585.362 300.613Q585.261 300.782 585.152 300.945Q585.043 301.108 584.926 301.266Q584.809 301.424 584.684 301.576Q584.56 301.727 584.428 301.873Q584.296 302.018 584.157 302.157Q584.018 302.296 583.873 302.428Q583.727 302.56 583.576 302.684Q583.424 302.809 583.266 302.926Q583.108 303.043 582.945 303.152Q582.782 303.261 582.613 303.362Q582.445 303.463 582.272 303.555Q582.099 303.648 581.921 303.732Q581.743 303.816 581.562 303.891Q581.381 303.966 581.196 304.032Q581.011 304.099 580.823 304.156Q580.635 304.213 580.445 304.26Q580.254 304.308 580.062 304.346Q579.869 304.385 579.675 304.413Q579.48 304.442 579.285 304.462Q579.09 304.481 578.893 304.49Q578.697 304.5 578.501 304.5L9.49899 304.5Q9.30263 304.5 9.1065 304.49Q8.91037 304.481 8.71495 304.462Q8.51954 304.442 8.3253 304.413Q8.13106 304.385 7.93847 304.346Q7.74588 304.308 7.5554 304.26Q7.36492 304.213 7.17701 304.156Q6.9891 304.099 6.80421 304.032Q6.61933 303.966 6.43791 303.891Q6.25649 303.816 6.07898 303.732Q5.90147 303.648 5.72829 303.555Q5.55512 303.463 5.38669 303.362Q5.21826 303.261 5.05499 303.152Q4.89172 303.043 4.734 302.926Q4.57628 302.809 4.42449 302.684Q4.27269 302.56 4.1272 302.428Q3.9817 302.296 3.84285 302.157Q3.704 302.018 3.57213 301.873Q3.44026 301.727 3.31569 301.576Q3.19112 301.424 3.07414 301.266Q2.95717 301.108 2.84807 300.945Q2.73898 300.782 2.63803 300.613Q2.53708 300.445 2.44451 300.272Q2.35195 300.098 2.26799 299.921Q2.18403 299.743 2.10889 299.562Q2.03374 299.381 1.96759 299.196Q1.90144 299.011 1.84443 298.823Q1.78743 298.635 1.73972 298.445Q1.69201 298.254 1.6537 298.061Q1.61539 297.869 1.58658 297.675Q1.55776 297.48 1.53852 297.285Q1.51927 297.09 1.50964 296.893Q1.5 296.697 1.5 296.501L1.5 9.49902Q1.5 9.30266 1.50964 9.10653Q1.51927 8.9104 1.53852 8.71498Q1.55776 8.51956 1.58658 8.32532Q1.61539 8.13108 1.6537 7.93849Q1.69201 7.7459 1.73972 7.55542Q1.78743 7.36494 1.84443 7.17703Q1.90144 6.98912 1.96759 6.80423Q2.03374 6.61935 2.10889 6.43793Q2.18403 6.25651 2.26799 6.079Q2.35195 5.90149 2.44451 5.72831Q2.53708 5.55513 2.63803 5.3867Q2.73898 5.21827 2.84807 5.055Q2.95717 4.89173 3.07414 4.73401Q3.19112 4.57629 3.31569 4.4245Q3.44026 4.2727 3.57213 4.12721Q3.704 3.98171 3.84285 3.84286Q3.9817 3.70401 4.1272 3.57214Q4.27269 3.44027 4.42449 3.31569Q4.57628 3.19112 4.734 3.07415Q4.89172 2.95717 5.05499 2.84808Q5.21826 2.73898 5.38669 2.63803Q5.55512 2.53708 5.72829 2.44451Q5.90147 2.35195 6.07898 2.26799Q6.25649 2.18403 6.43791 2.10889Q6.61933 2.03374 6.80421 1.96759Q6.9891 1.90144 7.17701 1.84444Q7.36492 1.78743 7.5554 1.73972Q7.74588 1.69201 7.93847 1.6537Q8.13106 1.61539 8.3253 1.58658Q8.51954 1.55776 8.71495 1.53852Q8.91037 1.51927 9.1065 1.50964Q9.30263 1.5 9.49899 1.5Z" id="Rectangle-11" fill="#D3D3D3" fill-opacity="0" fill-rule="evenodd" stroke="#FFFFFF" stroke-width="3" />
  <g id="Fragment-I" fill="#FFFFFF" transform="matrix(0.99999994 0 0 0.99999994 159.5 52.5)">
    <path d="M3.39844 13.2227L23.4609 13.2227Q24.7969 13.2227 25.2891 13.5977Q25.7812 13.9727 25.7812 15.0977Q25.7812 16.5273 24.8906 18.0508Q20.4609 16.2461 12.7031 16.2461L10.6641 16.2461Q10.5 18.8945 10.5 27.4727L22.0781 27.4727Q22.3828 28.3867 22.3828 29.3945Q22.3828 30.0508 22.1484 30.2734Q21.9141 30.4961 21.2344 30.4961L10.5 30.4961Q10.5234 40.1055 10.6641 42.8008L14.4375 42.8008Q14.7188 43.5039 14.7188 44.1602Q14.7188 44.7461 14.4844 44.9805Q14.25 45.2148 13.6641 45.2148L2.64844 45.2148Q2.34375 44.418 2.34375 43.7383Q2.34375 43.2461 2.58984 43.0234Q2.83594 42.8008 3.39844 42.8008L5.13281 42.8008Q5.29688 39.543 5.29688 26.0898Q5.29688 18.8945 5.13281 15.6367L2.64844 15.6367Q2.34375 14.8398 2.34375 14.1602Q2.34375 13.668 2.58984 13.4453Q2.83594 13.2227 3.39844 13.2227ZM234.75 13.2227L224.18 13.2227Q223.617 13.2227 223.371 13.4453Q223.125 13.668 223.125 14.1602Q223.125 14.8398 223.43 15.6367L226.312 15.6367Q226.477 18.8945 226.5 26.0898Q226.5 39.543 226.312 42.8008L224.18 42.8008Q223.617 42.8008 223.371 43.0234Q223.125 43.2461 223.125 43.7383Q223.125 44.418 223.43 45.2148L233.977 45.2148Q234.562 45.2148 234.797 44.9805Q235.031 44.7461 235.031 44.1602Q235.031 43.5039 234.75 42.8008L231.867 42.8008Q231.68 39.543 231.68 26.3711Q231.68 18.8945 231.844 15.6367L233.977 15.6367Q234.562 15.6367 234.797 15.4023Q235.031 15.168 235.031 14.582Q235.031 13.9258 234.75 13.2227ZM192.75 22.2461L194.344 22.2461L196.242 15.5898Q197.227 15.8945 197.918 16.3164Q198.609 16.7383 198.938 17.3125Q199.266 17.8867 199.266 21.2852L199.266 22.2461L206.977 22.2461Q207.258 23.0195 207.258 23.8867Q207.258 24.5664 207 24.7891Q206.742 25.0117 205.969 25.0117L199.266 25.0117L199.266 36.0977Q199.266 40.0586 199.992 41.3125Q200.719 42.5664 202.184 42.6367Q203.648 42.707 205.781 41.6758Q206.297 42.4492 206.297 43.3633Q206.297 44.6055 204.926 45.0273Q203.555 45.4492 200.602 45.4492Q197.391 45.4492 195.926 44.1367Q194.461 42.8242 194.461 39.2383L194.461 33.7305Q194.461 29.2305 194.203 25.0117L191.906 25.0117Q191.625 24.168 191.625 23.3711Q191.625 22.7852 191.883 22.5156Q192.141 22.2461 192.75 22.2461ZM90.4453 24.3555Q91.7578 26.6992 91.7578 29.3477Q91.7578 33.3086 89.2148 35.7461Q86.6719 38.1836 81.2109 38.1836Q78.75 38.1836 78.0234 38.7109Q77.2969 39.2383 77.2969 40.2461Q77.2969 41.4648 78.2812 42.0039Q79.2656 42.543 85.4766 42.543Q91.5938 42.543 93.4102 43.7969Q95.2266 45.0508 95.2266 47.5117Q95.2266 51.2148 91.3711 53.3711Q87.5156 55.5273 79.4297 55.5273Q75.4922 55.5273 74.1562 54.4609Q72.8203 53.3945 72.8203 51.4727Q72.8203 50.043 73.5703 48.5547Q74.3203 47.0664 75.6562 45.6836Q74.5078 45.2148 73.8164 44.2891Q73.125 43.3633 73.125 42.0039Q73.125 40.5977 74.0156 39.4141Q74.9062 38.2305 76.7344 37.3398Q75.2344 36.7305 74.3086 35.1602Q73.3828 33.5898 73.3828 31.0586Q73.3828 26.9336 75.9141 24.2969Q78.4453 21.6602 83.5312 21.6602Q86.3438 21.6602 88.7109 22.5742Q91.7578 21.1914 92.3438 21.1914Q95.1797 21.1914 95.4375 21.3438Q95.6953 21.4961 95.6953 21.8477Q95.6953 22.457 95.1445 23.5938Q94.5938 24.7305 94.1133 24.7305Q93.6328 24.7305 91.0078 23.6758L90.4453 24.3555ZM150.75 21.6602Q155.109 21.6602 157.219 23.7227Q159.328 25.7852 159.328 30.5195Q159.328 32.6055 158.578 33.4258Q157.828 34.2461 155.297 34.2461L144.938 34.2461Q144.984 38.0664 146.473 40.2461Q147.961 42.4258 151.734 42.4258Q155.25 42.4258 158.273 40.5977Q159.281 41.6055 159.281 42.7305Q159.281 44.3008 156.691 44.9336Q154.102 45.5664 150.844 45.5664Q144.844 45.5664 142.23 43.0234Q139.617 40.4805 139.617 34.457Q139.617 28.5273 142.559 25.0938Q145.5 21.6602 150.75 21.6602ZM28.3359 23.1836Q28.3359 22.5508 28.8281 22.375Q29.3203 22.1992 35.0391 22.0117Q35.1797 23.0898 35.0391 24.8945Q37.6406 23.1367 40.043 22.457Q42.4453 21.7773 44.4141 21.7773Q45.0703 21.7773 45.293 21.9297Q45.5156 22.082 45.5156 22.5977Q45.5156 23.6055 45.1992 24.7539Q44.8828 25.9023 44.4375 26.207Q43.9922 26.5117 42.9609 26.6758Q41.9297 26.8398 41.7539 26.7461Q41.5781 26.6523 40.6875 25.457Q38.6016 25.457 37.3125 26.7812Q36.0234 28.1055 36.0234 32.1133Q36.0469 39.3086 36.2109 42.8008L39.5156 42.8008Q39.7969 43.4102 39.7969 44.1133Q39.7969 44.7461 39.5391 44.9805Q39.2812 45.2148 38.5547 45.2148L28.6406 45.2148Q28.3359 44.4648 28.3359 43.8086Q28.3359 43.293 28.5938 43.0469Q28.8516 42.8008 29.4375 42.8008L31.0547 42.8008Q31.2422 39.3086 31.2422 33.6602Q31.2422 26.7461 30.7031 25.6445Q30.1641 24.543 28.6406 24.543Q28.3359 23.8867 28.3359 23.1836ZM119.836 42.8008Q119.672 40.0352 119.672 30.2148Q119.672 27.3555 121.09 26.2539Q122.508 25.1523 123.984 25.1523Q126.258 25.1523 127.277 26.7461Q128.297 28.3398 128.297 33.168L128.297 43.2695Q128.297 44.2305 128.555 44.6406Q128.812 45.0508 129.539 45.1328Q130.266 45.2148 133.523 45.2148Q134.602 45.2148 135 45.0039Q135.398 44.793 135.398 44.1602Q135.398 43.4805 135.141 42.8008Q133.828 42.8242 133.465 42.0742Q133.102 41.3242 133.102 28.7148Q133.102 24.6602 131.52 23.2188Q129.938 21.7773 127.055 21.7773Q125.273 21.7773 123.152 22.4922Q121.031 23.207 118.922 24.6367Q118.477 23.3945 117.234 22.5859Q115.992 21.7773 113.672 21.7773Q111.844 21.7773 109.699 22.5039Q107.555 23.2305 105.234 24.7773Q105.375 23.0898 105.234 22.0117Q99.5156 22.1992 99.0234 22.375Q98.5312 22.5508 98.5312 23.1836Q98.5312 23.8867 98.8359 24.543Q100.359 24.543 100.898 25.6445Q101.438 26.7461 101.438 33.6602Q101.438 39.0742 101.25 42.8008L99.6328 42.8008Q99.0469 42.8008 98.7891 43.0469Q98.5312 43.293 98.5312 43.8086Q98.5312 44.4648 98.8359 45.2148L107.344 45.2148Q108.07 45.2148 108.328 44.9805Q108.586 44.7461 108.586 44.1133Q108.586 43.4102 108.305 42.8008L106.406 42.8008Q106.242 39.3086 106.242 35.1602L106.242 30.2148Q106.242 27.3555 107.66 26.2539Q109.078 25.1523 110.555 25.1523Q112.828 25.1523 113.848 26.7461Q114.867 28.3398 114.867 33.168Q114.867 39.3555 114.703 42.8008L113.906 42.8008Q113.297 42.8008 113.051 43.0469Q112.805 43.293 112.805 43.8086Q112.805 44.4648 113.086 45.2148L121.359 45.2148Q122.109 45.2148 122.367 44.9805Q122.625 44.7461 122.625 44.1133Q122.625 43.4102 122.32 42.8008L119.836 42.8008ZM174.973 22.5039Q172.711 23.2305 170.391 24.7773Q170.531 23.0898 170.391 22.0117Q164.672 22.1992 164.18 22.375Q163.688 22.5508 163.688 23.1836Q163.688 23.8867 163.992 24.543Q165.516 24.543 166.055 25.6445Q166.594 26.7461 166.594 33.6602Q166.594 39.0742 166.406 42.8008L164.789 42.8008Q164.203 42.8008 163.945 43.0469Q163.688 43.293 163.688 43.8086Q163.688 44.4648 163.992 45.2148L173.203 45.2148Q173.93 45.2148 174.188 44.9805Q174.445 44.7461 174.445 44.1133Q174.445 43.4102 174.164 42.8008L171.562 42.8008Q171.398 39.3086 171.398 35.1602L171.398 30.2148Q171.398 27.3555 172.816 26.2539Q174.234 25.1523 176.18 25.1523Q178.453 25.1523 179.473 26.7461Q180.492 28.3398 180.492 33.168L180.492 43.2695Q180.492 44.2305 180.75 44.6406Q181.008 45.0508 181.734 45.1328Q182.461 45.2148 185.719 45.2148Q186.797 45.2148 187.195 45.0039Q187.594 44.793 187.594 44.1602Q187.594 43.4805 187.336 42.8008Q186.023 42.8242 185.66 42.0742Q185.297 41.3242 185.297 28.7148Q185.297 24.6602 183.715 23.2188Q182.133 21.7773 179.016 21.7773Q177.234 21.7773 174.973 22.5039ZM58.418 45.0859Q60.4922 44.4883 62.4609 43.3398Q63.3984 45.0508 63.832 45.25Q64.2656 45.4492 65.0859 45.4492Q66.7734 45.4492 67.7695 45.0273Q68.7656 44.6055 68.7656 43.8086Q68.7656 43.3164 68.4844 42.8008Q67.4766 43.0117 67.043 41.9102Q66.6094 40.8086 66.6094 35.793L66.6094 28.5742Q66.6094 24.7539 64.6289 23.3242Q62.6484 21.8945 58.5 21.8945Q55.3828 21.8945 52.6172 22.2695Q49.8516 22.6445 49.4648 22.9023Q49.0781 23.1602 49.0781 23.6289Q49.0781 24.332 49.582 25.4805Q50.0859 26.6289 50.5664 27.0625Q51.0469 27.4961 52.2656 27.1797Q53.4844 26.8633 53.6133 26.7695Q53.7422 26.6758 54.4219 25.3164Q55.7109 25.0352 57.1172 25.0352Q59.7656 25.0352 60.8086 26.6523Q61.8516 28.2695 61.9922 32.3945L58.5469 32.3945Q53.2031 32.3945 50.6484 34.293Q48.0938 36.1914 48.0938 39.7773Q48.0938 42.707 49.6406 44.1953Q51.1875 45.6836 54.3516 45.6836Q56.3438 45.6836 58.418 45.0859ZM82.4766 24.332Q80.25 24.332 79.1719 25.5859Q78.0938 26.8398 78.0938 30.1211Q78.0938 32.9336 79.1367 34.2227Q80.1797 35.5117 82.4062 35.5117Q84.7734 35.5117 85.8984 34.3516Q87.0234 33.1914 87.0234 29.9805Q87.0234 27.1445 85.8867 25.7383Q84.75 24.332 82.4766 24.332ZM149.859 24.8008Q147.516 24.8008 146.297 26.4766Q145.078 28.1523 144.961 31.7148L147.375 31.7148Q151.219 31.7148 152.613 31.5625Q154.008 31.4102 154.23 31.0586Q154.453 30.707 154.453 29.7461Q154.453 27.4258 153.281 26.1133Q152.109 24.8008 149.859 24.8008ZM57.8203 35.0664Q59.9766 35.0664 61.9922 35.418L61.9922 36.8008Q61.9922 39.1445 61.5586 40.2344Q61.125 41.3242 59.7891 41.9336Q58.4531 42.543 56.9062 42.543Q54.9141 42.543 53.9648 41.5938Q53.0156 40.6445 53.0156 38.7695Q53.0156 36.8477 54.082 35.957Q55.1484 35.0664 57.8203 35.0664ZM78.6797 45.918Q77.8594 46.7383 77.4258 47.7695Q76.9922 48.8008 76.9922 49.8555Q76.9922 51.4492 77.9531 52.1523Q78.9141 52.8555 81.7969 52.8555Q86.0156 52.8555 88.1602 51.8477Q90.3047 50.8398 90.3047 48.918Q90.3047 47.2305 88.7344 46.5742Q87.1641 45.918 78.6797 45.918Z" />
  </g>
  <path d="M159.5 109L395.5 108.5" id="Line-14" fill="none" fill-rule="evenodd" stroke="#AAAAAA" stroke-width="5" stroke-linecap="square" />
  <g id="C:-PRTCL.&gt;-retrieve-the-Access" transform="translate(91.50003 138.5)">
    <g id="C:-PRTCL.&gt;-Retrieve-The-Access-Key" fill="#FFFFFF">
      <path d="M237.246 23.1958L239.18 23.1958L239.18 17.4829Q239.18 15.8276 239.648 14.9268Q240.117 14.0259 240.886 13.5278Q241.655 13.0298 242.505 13.0298Q243.252 13.0298 243.838 13.4033Q244.424 13.7769 244.629 14.4214Q244.834 15.0659 244.834 16.6333L244.834 23.1958L246.768 23.1958L246.768 15.7983Q246.768 13.894 246.292 13.0225Q245.815 12.1509 244.944 11.7041Q244.072 11.2573 242.988 11.2573Q242.212 11.2573 241.582 11.4917Q240.952 11.7261 240.374 12.1802Q239.795 12.6343 239.18 13.5864L239.18 6.40869L237.246 6.40869L237.246 23.1958ZM13.0664 19.7241L11.1328 19.7241L11.1328 19.8267Q11.1328 20.6763 10.4224 21.3721Q9.71191 22.0679 8.02734 22.0679Q5.58105 22.0679 4.35791 20.127Q3.13477 18.186 3.13477 15.1245Q3.13477 12.0923 4.35059 10.1367Q5.56641 8.18115 8.04199 8.18115Q9.00879 8.18115 9.69727 8.45947Q10.3857 8.73779 10.7593 9.28711Q11.1328 9.83643 11.1328 10.4224L11.1328 10.5249L13.0664 10.5249L13.0664 10.4224Q13.0664 9.49951 12.4072 8.49609Q11.748 7.49268 10.6201 7.03125Q9.49219 6.56982 7.96875 6.56982Q4.86328 6.56982 2.91504 8.72314Q0.966797 10.8765 0.966797 15.1245Q0.966797 19.4019 2.92236 21.5405Q4.87793 23.6792 7.9541 23.6792Q9.49219 23.6792 10.6201 23.2178Q11.748 22.7563 12.4072 21.7676Q13.0664 20.7788 13.0664 19.8267L13.0664 19.7241ZM31.3037 23.6792L29.502 23.6792L20.8154 6.56982L22.6758 6.56982L31.3037 23.6792ZM81.8848 19.7241L83.8184 19.7241L83.8184 19.8267Q83.8184 20.7788 83.1592 21.7676Q82.5 22.7563 81.3721 23.2178Q80.2441 23.6792 78.7061 23.6792Q75.6299 23.6792 73.6743 21.5405Q71.7188 19.4019 71.7188 15.1245Q71.7188 10.8765 73.667 8.72314Q75.6152 6.56982 78.7207 6.56982Q80.2441 6.56982 81.3721 7.03125Q82.5 7.49268 83.1592 8.49609Q83.8184 9.49951 83.8184 10.4224L83.8184 10.5249L81.8848 10.5249L81.8848 10.4224Q81.8848 9.83643 81.5112 9.28711Q81.1377 8.73779 80.4492 8.45947Q79.7607 8.18115 78.7939 8.18115Q76.3184 8.18115 75.1025 10.1367Q73.8867 12.0923 73.8867 15.1245Q73.8867 18.186 75.1099 20.127Q76.333 22.0679 78.7793 22.0679Q80.4639 22.0679 81.1743 21.3721Q81.8848 20.6763 81.8848 19.8267L81.8848 19.7241ZM33.3105 23.1958L35.4199 23.1958L35.4199 16.8237L37.4121 16.8237Q40.4736 16.8237 42.019 15.2856Q43.5645 13.7476 43.5645 11.4771Q43.5645 10.1294 43.0298 9.11865Q42.4951 8.10791 41.4331 7.58057Q40.3711 7.05322 37.8076 7.05322L33.3105 7.05322L33.3105 23.1958ZM47.8418 23.1958L45.7324 23.1958L45.7324 7.05322L50.7275 7.05322Q52.5732 7.05322 53.4961 7.58057Q54.4189 8.10791 54.9609 9.11865Q55.5029 10.1294 55.5029 11.3013Q55.5029 12.2388 55.1367 13.1104Q54.7705 13.9819 54.1113 14.6851Q53.4521 15.3882 52.0752 15.9302Q52.5879 16.2231 52.8516 16.4868Q53.1152 16.7505 53.4888 17.3291Q53.8623 17.9077 54.1406 18.4204L56.7041 23.1958L54.3018 23.1958L52.0752 18.9478Q51.2549 17.4097 49.9658 16.2524L47.8418 16.2524L47.8418 23.1958ZM62.9297 8.6792L62.9297 23.1958L65.0244 23.1958L65.0244 8.6792L70.4297 8.6792L70.4297 7.05322L57.4365 7.05322L57.4365 8.6792L62.9297 8.6792ZM88.2568 7.05322L86.1475 7.05322L86.1475 23.1958L96.7236 23.1958L96.7236 21.4233L88.2568 21.4233L88.2568 7.05322ZM131.323 23.1958L129.214 23.1958L129.214 7.05322L134.209 7.05322Q136.055 7.05322 136.978 7.58057Q137.9 8.10791 138.442 9.11865Q138.984 10.1294 138.984 11.3013Q138.984 12.2388 138.618 13.1104Q138.252 13.9819 137.593 14.6851Q136.934 15.3882 135.557 15.9302Q136.069 16.2231 136.333 16.4868Q136.597 16.7505 136.97 17.3291Q137.344 17.9077 137.622 18.4204L140.186 23.1958L137.783 23.1958L135.557 18.9478Q134.736 17.4097 133.447 16.2524L131.323 16.2524L131.323 23.1958ZM172.061 9.00146L172.061 7.05322L173.994 7.05322L173.994 9.00146L172.061 9.00146ZM227.9 23.1958L227.9 8.6792L222.407 8.6792L222.407 7.05322L235.4 7.05322L235.4 8.6792L229.995 8.6792L229.995 23.1958L227.9 23.1958ZM270.718 23.1958L272.666 23.1958L274.497 18.7573L281.616 18.7573L283.286 23.1958L285.557 23.1958L279.448 7.05322L277.339 7.05322L270.718 23.1958ZM354.595 23.1958L356.704 23.1958L356.704 14.7583L364.233 23.1958L366.855 23.1958L359.165 14.6265L365.83 7.05322L363.442 7.05322L356.704 14.7583L356.704 7.05322L354.595 7.05322L354.595 23.1958ZM36.8262 15.2124L35.4199 15.2124L35.4199 8.6792L37.8516 8.6792Q39.9609 8.6792 40.6714 9.47021Q41.3818 10.2612 41.3818 11.5649Q41.3818 13.0591 40.5029 14.1357Q39.624 15.2124 36.8262 15.2124ZM47.8418 14.6411L49.8926 14.6411Q51.1816 14.6411 51.8555 14.2456Q52.5293 13.8501 52.9248 13.0811Q53.3203 12.312 53.3203 11.4478Q53.3203 10.686 53.0054 10.0854Q52.6904 9.48486 52.0898 9.08203Q51.4893 8.6792 50.0391 8.6792L47.8418 8.6792L47.8418 14.6411ZM131.323 14.6411L133.374 14.6411Q134.663 14.6411 135.337 14.2456Q136.011 13.8501 136.406 13.0811Q136.802 12.312 136.802 11.4478Q136.802 10.686 136.487 10.0854Q136.172 9.48486 135.571 9.08203Q134.971 8.6792 133.521 8.6792L131.323 8.6792L131.323 14.6411ZM161.484 21.5552L161.484 23.1812Q160.078 23.5181 159.331 23.5181Q158.247 23.5181 157.375 23.0786Q156.504 22.6392 156.05 21.8115Q155.596 20.9839 155.596 19.1675L155.596 13.1909L153.589 13.1909L153.589 11.5796L155.596 11.5796L155.596 8.82568L157.544 8.82568L157.544 11.5796L160.928 11.5796L160.928 13.1909L157.544 13.1909L157.544 18.6108Q157.544 20.1489 157.778 20.7495Q158.013 21.3501 158.525 21.6284Q159.038 21.9067 159.756 21.9067Q160.327 21.9067 161.484 21.5552ZM280.986 17.146L275.127 17.146L278.159 9.646L280.986 17.146ZM151.655 20.2075L149.722 20.2075L149.722 20.3101Q149.722 20.9253 149.128 21.416Q148.535 21.9067 147.261 21.9067Q145.488 21.9067 144.485 20.6982Q143.481 19.4897 143.481 17.6294L151.729 17.6294L151.729 16.9849Q151.729 14.8169 151.106 13.6084Q150.483 12.3999 149.407 11.8286Q148.33 11.2573 147.012 11.2573Q144.609 11.2573 143.086 13.0225Q141.562 14.7876 141.562 17.4683Q141.562 20.0903 143.005 21.8042Q144.448 23.5181 147.1 23.5181Q148.403 23.5181 149.414 23.1006Q150.425 22.6831 151.04 21.8848Q151.655 21.0864 151.655 20.3101L151.655 20.2075ZM163.828 23.1958L165.762 23.1958L165.762 17.4536Q165.762 15.022 166.787 14.0625Q167.812 13.103 168.911 13.103Q169.673 13.103 170.361 13.4399L170.361 11.4331Q169.922 11.2573 169.321 11.2573Q168.662 11.2573 168.018 11.5137Q167.373 11.77 166.809 12.2534Q166.245 12.7368 165.762 13.6304L165.762 11.5796L163.828 11.5796L163.828 23.1958ZM186.606 20.2075L184.673 20.2075L184.673 20.3101Q184.673 20.9253 184.08 21.416Q183.486 21.9067 182.212 21.9067Q180.439 21.9067 179.436 20.6982Q178.433 19.4897 178.433 17.6294L186.68 17.6294L186.68 16.9849Q186.68 14.8169 186.057 13.6084Q185.435 12.3999 184.358 11.8286Q183.281 11.2573 181.963 11.2573Q179.561 11.2573 178.037 13.0225Q176.514 14.7876 176.514 17.4683Q176.514 20.0903 177.957 21.8042Q179.399 23.5181 182.051 23.5181Q183.354 23.5181 184.365 23.1006Q185.376 22.6831 185.991 21.8848Q186.606 21.0864 186.606 20.3101L186.606 20.2075ZM210.894 20.2075L208.96 20.2075L208.96 20.3101Q208.96 20.9253 208.367 21.416Q207.773 21.9067 206.499 21.9067Q204.727 21.9067 203.723 20.6982Q202.72 19.4897 202.72 17.6294L210.967 17.6294L210.967 16.9849Q210.967 14.8169 210.344 13.6084Q209.722 12.3999 208.645 11.8286Q207.568 11.2573 206.25 11.2573Q203.848 11.2573 202.324 13.0225Q200.801 14.7876 200.801 17.4683Q200.801 20.0903 202.244 21.8042Q203.687 23.5181 206.338 23.5181Q207.642 23.5181 208.652 23.1006Q209.663 22.6831 210.278 21.8848Q210.894 21.0864 210.894 20.3101L210.894 20.2075ZM257.271 20.2075L259.204 20.2075L259.204 20.3101Q259.204 21.0864 258.589 21.8848Q257.974 22.6831 256.963 23.1006Q255.952 23.5181 254.648 23.5181Q251.997 23.5181 250.554 21.8042Q249.111 20.0903 249.111 17.4683Q249.111 14.7876 250.635 13.0225Q252.158 11.2573 254.561 11.2573Q255.879 11.2573 256.956 11.8286Q258.032 12.3999 258.655 13.6084Q259.277 14.8169 259.277 16.9849L259.277 17.6294L251.03 17.6294Q251.03 19.4897 252.034 20.6982Q253.037 21.9067 254.81 21.9067Q256.084 21.9067 256.677 21.416Q257.271 20.9253 257.271 20.3101L257.271 20.2075ZM294.668 20.2075L296.616 20.2075L296.616 20.3101Q296.616 21.1011 296.023 21.8848Q295.43 22.6685 294.485 23.0933Q293.54 23.5181 292.192 23.5181Q289.629 23.5181 288.237 21.8921Q286.846 20.2661 286.846 17.3804Q286.846 14.5093 288.237 12.8833Q289.629 11.2573 292.192 11.2573Q293.54 11.2573 294.485 11.6748Q295.43 12.0923 296.023 12.832Q296.616 13.5718 296.616 14.4653L296.616 14.5679L294.668 14.5679L294.668 14.4653Q294.697 13.8208 294.111 13.3447Q293.525 12.8687 292.295 12.8687Q290.845 12.8687 289.856 13.938Q288.867 15.0073 288.867 17.3804Q288.867 19.7681 289.856 20.8374Q290.845 21.9067 292.295 21.9067Q293.525 21.9067 294.097 21.4307Q294.668 20.9546 294.668 20.3101L294.668 20.2075ZM308.232 20.2075L306.284 20.2075L306.284 20.3101Q306.284 20.9546 305.713 21.4307Q305.142 21.9067 303.911 21.9067Q302.461 21.9067 301.472 20.8374Q300.483 19.7681 300.483 17.3804Q300.483 15.0073 301.472 13.938Q302.461 12.8687 303.911 12.8687Q305.142 12.8687 305.728 13.3447Q306.313 13.8208 306.284 14.4653L306.284 14.5679L308.232 14.5679L308.232 14.4653Q308.232 13.5718 307.639 12.832Q307.046 12.0923 306.101 11.6748Q305.156 11.2573 303.809 11.2573Q301.245 11.2573 299.854 12.8833Q298.462 14.5093 298.462 17.3804Q298.462 20.2661 299.854 21.8921Q301.245 23.5181 303.809 23.5181Q305.156 23.5181 306.101 23.0933Q307.046 22.6685 307.639 21.8848Q308.232 21.1011 308.232 20.3101L308.232 20.2075ZM318.237 20.2075L320.171 20.2075L320.171 20.3101Q320.171 21.0864 319.556 21.8848Q318.94 22.6831 317.93 23.1006Q316.919 23.5181 315.615 23.5181Q312.964 23.5181 311.521 21.8042Q310.078 20.0903 310.078 17.4683Q310.078 14.7876 311.602 13.0225Q313.125 11.2573 315.527 11.2573Q316.846 11.2573 317.922 11.8286Q318.999 12.3999 319.622 13.6084Q320.244 14.8169 320.244 16.9849L320.244 17.6294L311.997 17.6294Q311.997 19.4897 313 20.6982Q314.004 21.9067 315.776 21.9067Q317.051 21.9067 317.644 21.416Q318.237 20.9253 318.237 20.3101L318.237 20.2075ZM324.111 20.1343L322.178 20.1343L322.178 20.1636Q322.178 21.1597 322.742 21.9141Q323.306 22.6685 324.25 23.0933Q325.195 23.5181 326.631 23.5181Q328.901 23.5181 330.081 22.3975Q331.26 21.2769 331.26 19.6216Q331.26 18.9185 331.025 18.3911Q330.791 17.8638 330.308 17.4829Q329.956 17.2192 329.604 17.0581Q329.253 16.897 327.847 16.4868L327.158 16.2964L326.235 16.0327Q325.283 15.7544 324.88 15.4175Q324.478 15.0806 324.478 14.5386Q324.478 13.8354 325.1 13.3521Q325.723 12.8687 326.88 12.8687Q327.861 12.8687 328.447 13.1982Q329.033 13.5278 329.033 14.1138L329.033 14.1577L330.981 14.1577L330.981 14.1138Q330.981 13.0298 330.066 12.1436Q329.15 11.2573 326.982 11.2573Q324.8 11.2573 323.687 12.2974Q322.573 13.3374 322.573 14.7144Q322.573 16.6626 324.873 17.5122L326.206 17.9224L326.865 18.1274L327.847 18.4351Q329.312 18.8745 329.312 19.9438Q329.312 20.7349 328.564 21.3208Q327.817 21.9067 326.631 21.9067Q325.269 21.9067 324.69 21.416Q324.111 20.9253 324.111 20.1636L324.111 20.1343ZM333.032 20.1343L334.966 20.1343L334.966 20.1636Q334.966 20.9253 335.544 21.416Q336.123 21.9067 337.485 21.9067Q338.672 21.9067 339.419 21.3208Q340.166 20.7349 340.166 19.9438Q340.166 18.8745 338.701 18.4351L337.72 18.1274L337.061 17.9224L335.728 17.5122Q333.428 16.6626 333.428 14.7144Q333.428 13.3374 334.541 12.2974Q335.654 11.2573 337.837 11.2573Q340.005 11.2573 340.92 12.1436Q341.836 13.0298 341.836 14.1138L341.836 14.1577L339.888 14.1577L339.888 14.1138Q339.888 13.5278 339.302 13.1982Q338.716 12.8687 337.734 12.8687Q336.577 12.8687 335.955 13.3521Q335.332 13.8354 335.332 14.5386Q335.332 15.0806 335.735 15.4175Q336.138 15.7544 337.09 16.0327L338.013 16.2964L338.701 16.4868Q340.107 16.897 340.459 17.0581Q340.811 17.2192 341.162 17.4829Q341.646 17.8638 341.88 18.3911Q342.114 18.9185 342.114 19.6216Q342.114 21.2769 340.935 22.3975Q339.756 23.5181 337.485 23.5181Q336.05 23.5181 335.105 23.0933Q334.16 22.6685 333.596 21.9141Q333.032 21.1597 333.032 20.1636L333.032 20.1343ZM376.318 20.2075L378.252 20.2075L378.252 20.3101Q378.252 21.0864 377.637 21.8848Q377.021 22.6831 376.011 23.1006Q375 23.5181 373.696 23.5181Q371.045 23.5181 369.602 21.8042Q368.159 20.0903 368.159 17.4683Q368.159 14.7876 369.683 13.0225Q371.206 11.2573 373.608 11.2573Q374.927 11.2573 376.003 11.8286Q377.08 12.3999 377.703 13.6084Q378.325 14.8169 378.325 16.9849L378.325 17.6294L370.078 17.6294Q370.078 19.4897 371.082 20.6982Q372.085 21.9067 373.857 21.9067Q375.132 21.9067 375.725 21.416Q376.318 20.9253 376.318 20.3101L376.318 20.2075ZM15.7178 14.3188L18.4717 14.3188L18.4717 11.5796L15.7178 11.5796L15.7178 14.3188ZM104.795 21.3501L104.795 23.1958L116.411 17.2925L104.795 11.5796L104.795 13.3228L112.808 17.2925L104.795 21.3501ZM172.061 11.5796L173.994 11.5796L173.994 23.1958L172.061 23.1958L172.061 11.5796ZM192.773 23.1958L188.042 11.5796L190.122 11.5796L193.857 20.6909L197.651 11.5796L199.585 11.5796L194.707 23.1958L192.773 23.1958ZM379.775 11.5796L384.771 22.6978L384.565 23.1372Q383.892 24.7339 383.496 25.2026Q383.101 25.6714 382.493 25.8838Q381.885 26.0962 381.079 26.0962L379.995 26.0962L379.995 27.7075L381.445 27.7075Q382.69 27.7075 383.43 27.3999Q384.17 27.0923 384.836 26.3232Q385.503 25.5542 386.499 23.2104L391.392 11.5796L389.443 11.5796L385.811 20.2075L381.914 11.5796L379.775 11.5796ZM149.868 16.1792L143.599 16.1792Q143.892 14.6118 144.807 13.7402Q145.723 12.8687 146.807 12.8687Q147.715 12.8687 148.403 13.2349Q149.092 13.6011 149.48 14.3701Q149.868 15.1392 149.868 15.9448L149.868 16.1792ZM184.819 16.1792L178.55 16.1792Q178.843 14.6118 179.758 13.7402Q180.674 12.8687 181.758 12.8687Q182.666 12.8687 183.354 13.2349Q184.043 13.6011 184.431 14.3701Q184.819 15.1392 184.819 15.9448L184.819 16.1792ZM209.106 16.1792L202.837 16.1792Q203.13 14.6118 204.045 13.7402Q204.961 12.8687 206.045 12.8687Q206.953 12.8687 207.642 13.2349Q208.33 13.6011 208.718 14.3701Q209.106 15.1392 209.106 15.9448L209.106 16.1792ZM251.147 16.1792L257.417 16.1792L257.417 15.9448Q257.417 15.1392 257.029 14.3701Q256.641 13.6011 255.952 13.2349Q255.264 12.8687 254.355 12.8687Q253.271 12.8687 252.356 13.7402Q251.44 14.6118 251.147 16.1792ZM312.114 16.1792L318.384 16.1792L318.384 15.9448Q318.384 15.1392 317.996 14.3701Q317.607 13.6011 316.919 13.2349Q316.23 12.8687 315.322 12.8687Q314.238 12.8687 313.323 13.7402Q312.407 14.6118 312.114 16.1792ZM370.195 16.1792L376.465 16.1792L376.465 15.9448Q376.465 15.1392 376.077 14.3701Q375.688 13.6011 375 13.2349Q374.312 12.8687 373.403 12.8687Q372.319 12.8687 371.404 13.7402Q370.488 14.6118 370.195 16.1792ZM15.7178 23.1958L18.4717 23.1958L18.4717 20.4565L15.7178 20.4565L15.7178 23.1958ZM101.646 23.1958L98.8916 23.1958L98.8916 20.4565L101.646 20.4565L101.646 23.1958Z" />
    </g>
    <g id="C:-PRTCL.&gt;-Activate-The-First-Cycle" fill="#FFFFFF">
      <path d="M241.846 85.7593L239.912 85.7593L239.912 68.9722L241.846 68.9722L241.846 76.1499Q242.461 75.1978 243.04 74.7437Q243.618 74.2896 244.248 74.0552Q244.878 73.8208 245.654 73.8208Q246.738 73.8208 247.61 74.2676Q248.481 74.7144 248.958 75.5859Q249.434 76.4575 249.434 78.3618L249.434 85.7593L247.5 85.7593L247.5 79.1968Q247.5 77.6294 247.295 76.9849Q247.09 76.3403 246.504 75.9668Q245.918 75.5933 245.171 75.5933Q244.321 75.5933 243.552 76.0913Q242.783 76.5894 242.314 77.4902Q241.846 78.3911 241.846 80.0464L241.846 85.7593ZM369.492 85.7593L367.559 85.7593L367.559 68.9722L369.492 68.9722L369.492 85.7593ZM11.1328 82.2876L13.0664 82.2876L13.0664 82.3901Q13.0664 83.3423 12.4072 84.3311Q11.748 85.3198 10.6201 85.7812Q9.49219 86.2427 7.9541 86.2427Q4.87793 86.2427 2.92236 84.104Q0.966797 81.9653 0.966797 77.688Q0.966797 73.4399 2.91504 71.2866Q4.86328 69.1333 7.96875 69.1333Q9.49219 69.1333 10.6201 69.5947Q11.748 70.0562 12.4072 71.0596Q13.0664 72.063 13.0664 72.9858L13.0664 73.0884L11.1328 73.0884L11.1328 72.9858Q11.1328 72.3999 10.7593 71.8506Q10.3857 71.3013 9.69727 71.0229Q9.00879 70.7446 8.04199 70.7446Q5.56641 70.7446 4.35059 72.7002Q3.13477 74.6558 3.13477 77.688Q3.13477 80.7495 4.35791 82.6904Q5.58105 84.6313 8.02734 84.6313Q9.71191 84.6313 10.4224 83.9355Q11.1328 83.2397 11.1328 82.3901L11.1328 82.2876ZM29.502 86.2427L31.3037 86.2427L22.6758 69.1333L20.8154 69.1333L29.502 86.2427ZM83.8184 82.2876L81.8848 82.2876L81.8848 82.3901Q81.8848 83.2397 81.1743 83.9355Q80.4639 84.6313 78.7793 84.6313Q76.333 84.6313 75.1099 82.6904Q73.8867 80.7495 73.8867 77.688Q73.8867 74.6558 75.1025 72.7002Q76.3184 70.7446 78.7939 70.7446Q79.7607 70.7446 80.4492 71.0229Q81.1377 71.3013 81.5112 71.8506Q81.8848 72.3999 81.8848 72.9858L81.8848 73.0884L83.8184 73.0884L83.8184 72.9858Q83.8184 72.063 83.1592 71.0596Q82.5 70.0562 81.3721 69.5947Q80.2441 69.1333 78.7207 69.1333Q75.6152 69.1333 73.667 71.2866Q71.7188 73.4399 71.7188 77.688Q71.7188 81.9653 73.6743 84.104Q75.6299 86.2427 78.7061 86.2427Q80.2441 86.2427 81.3721 85.7812Q82.5 85.3198 83.1592 84.3311Q83.8184 83.3423 83.8184 82.3901L83.8184 82.2876ZM341.44 82.2876L339.507 82.2876L339.507 82.3901Q339.507 83.2397 338.796 83.9355Q338.086 84.6313 336.401 84.6313Q333.955 84.6313 332.732 82.6904Q331.509 80.7495 331.509 77.688Q331.509 74.6558 332.725 72.7002Q333.94 70.7446 336.416 70.7446Q337.383 70.7446 338.071 71.0229Q338.76 71.3013 339.133 71.8506Q339.507 72.3999 339.507 72.9858L339.507 73.0884L341.44 73.0884L341.44 72.9858Q341.44 72.063 340.781 71.0596Q340.122 70.0562 338.994 69.5947Q337.866 69.1333 336.343 69.1333Q333.237 69.1333 331.289 71.2866Q329.341 73.4399 329.341 77.688Q329.341 81.9653 331.296 84.104Q333.252 86.2427 336.328 86.2427Q337.866 86.2427 338.994 85.7812Q340.122 85.3198 340.781 84.3311Q341.44 83.3423 341.44 82.3901L341.44 82.2876ZM35.4199 85.7593L33.3105 85.7593L33.3105 69.6167L37.8076 69.6167Q40.3711 69.6167 41.4331 70.144Q42.4951 70.6714 43.0298 71.6821Q43.5645 72.6929 43.5645 74.0405Q43.5645 76.311 42.019 77.8491Q40.4736 79.3872 37.4121 79.3872L35.4199 79.3872L35.4199 85.7593ZM45.7324 85.7593L47.8418 85.7593L47.8418 78.8159L49.9658 78.8159Q51.2549 79.9731 52.0752 81.5112L54.3018 85.7593L56.7041 85.7593L54.1406 80.9839Q53.8623 80.4712 53.4888 79.8926Q53.1152 79.314 52.8516 79.0503Q52.5879 78.7866 52.0752 78.4937Q53.4521 77.9517 54.1113 77.2485Q54.7705 76.5454 55.1367 75.6738Q55.5029 74.8022 55.5029 73.8647Q55.5029 72.6929 54.9609 71.6821Q54.4189 70.6714 53.4961 70.144Q52.5732 69.6167 50.7275 69.6167L45.7324 69.6167L45.7324 85.7593ZM62.9297 85.7593L62.9297 71.2427L57.4365 71.2427L57.4365 69.6167L70.4297 69.6167L70.4297 71.2427L65.0244 71.2427L65.0244 85.7593L62.9297 85.7593ZM86.1475 69.6167L88.2568 69.6167L88.2568 83.9868L96.7236 83.9868L96.7236 85.7593L86.1475 85.7593L86.1475 69.6167ZM128.013 85.7593L129.961 85.7593L131.792 81.3208L138.911 81.3208L140.581 85.7593L142.852 85.7593L136.743 69.6167L134.634 69.6167L128.013 85.7593ZM165.762 71.5649L165.762 69.6167L167.695 69.6167L167.695 71.5649L165.762 71.5649ZM230.566 71.2427L230.566 85.7593L232.661 85.7593L232.661 71.2427L238.066 71.2427L238.066 69.6167L225.073 69.6167L225.073 71.2427L230.566 71.2427ZM274.585 69.6167L283.711 69.6167L283.711 71.3892L276.694 71.3892L276.694 76.9556L282.817 76.9556L282.817 78.5815L276.694 78.5815L276.694 85.7593L274.585 85.7593L274.585 69.6167ZM286.362 69.6167L286.362 71.5649L288.296 71.5649L288.296 69.6167L286.362 69.6167ZM35.4199 77.7759L36.8262 77.7759Q39.624 77.7759 40.5029 76.6992Q41.3818 75.6226 41.3818 74.1284Q41.3818 72.8247 40.6714 72.0337Q39.9609 71.2427 37.8516 71.2427L35.4199 71.2427L35.4199 77.7759ZM49.8926 77.2046L47.8418 77.2046L47.8418 71.2427L50.0391 71.2427Q51.4893 71.2427 52.0898 71.6455Q52.6904 72.0483 53.0054 72.6489Q53.3203 73.2495 53.3203 74.0112Q53.3203 74.8755 52.9248 75.6445Q52.5293 76.4136 51.8555 76.8091Q51.1816 77.2046 49.8926 77.2046ZM163.418 85.7446L163.418 84.1187Q162.261 84.4702 161.689 84.4702Q160.972 84.4702 160.459 84.1919Q159.946 83.9136 159.712 83.313Q159.478 82.7124 159.478 81.1743L159.478 75.7544L162.861 75.7544L162.861 74.1431L159.478 74.1431L159.478 71.3892L157.529 71.3892L157.529 74.1431L155.522 74.1431L155.522 75.7544L157.529 75.7544L157.529 81.731Q157.529 83.5474 157.983 84.375Q158.438 85.2026 159.309 85.6421Q160.181 86.0815 161.265 86.0815Q162.012 86.0815 163.418 85.7446ZM201.68 85.7446L201.68 84.1187Q200.522 84.4702 199.951 84.4702Q199.233 84.4702 198.721 84.1919Q198.208 83.9136 197.974 83.313Q197.739 82.7124 197.739 81.1743L197.739 75.7544L201.123 75.7544L201.123 74.1431L197.739 74.1431L197.739 71.3892L195.791 71.3892L195.791 74.1431L193.784 74.1431L193.784 75.7544L195.791 75.7544L195.791 81.731Q195.791 83.5474 196.245 84.375Q196.699 85.2026 197.571 85.6421Q198.442 86.0815 199.526 86.0815Q200.273 86.0815 201.68 85.7446ZM317.563 84.1187L317.563 85.7446Q316.157 86.0815 315.41 86.0815Q314.326 86.0815 313.455 85.6421Q312.583 85.2026 312.129 84.375Q311.675 83.5474 311.675 81.731L311.675 75.7544L309.668 75.7544L309.668 74.1431L311.675 74.1431L311.675 71.3892L313.623 71.3892L313.623 74.1431L317.007 74.1431L317.007 75.7544L313.623 75.7544L313.623 81.1743Q313.623 82.7124 313.857 83.313Q314.092 83.9136 314.604 84.1919Q315.117 84.4702 315.835 84.4702Q316.406 84.4702 317.563 84.1187ZM138.281 79.7095L132.422 79.7095L135.454 72.2095L138.281 79.7095ZM189.976 85.7593Q189.668 84.8218 189.668 84.1479Q188.394 85.4077 187.5 85.7446Q186.606 86.0815 185.771 86.0815Q184.395 86.0815 183.398 85.2319Q182.402 84.3823 182.402 82.9028Q182.402 81.2183 183.801 80.3027Q185.2 79.3872 188.628 78.7134L189.668 78.5229L189.668 77.2046Q189.668 76.1353 188.95 75.7031Q188.232 75.271 187.222 75.271Q186.021 75.271 185.339 75.8057Q184.658 76.3403 184.658 77.0435L184.658 77.2046L182.563 77.2046L182.563 77.0581Q182.563 76.2817 183.215 75.4614Q183.867 74.6411 184.944 74.2236Q186.021 73.8062 187.295 73.8062Q188.569 73.8062 189.609 74.2017Q190.649 74.5972 191.125 75.271Q191.602 75.9448 191.602 77.7905L191.602 82.3022Q191.602 83.0493 191.638 83.8623Q191.675 84.6753 192.012 85.7593L189.976 85.7593ZM151.963 82.771L153.911 82.771L153.911 82.8735Q153.911 83.6646 153.318 84.4482Q152.725 85.2319 151.78 85.6567Q150.835 86.0815 149.487 86.0815Q146.924 86.0815 145.532 84.4556Q144.141 82.8296 144.141 79.9438Q144.141 77.0728 145.532 75.4468Q146.924 73.8208 149.487 73.8208Q150.835 73.8208 151.78 74.2383Q152.725 74.6558 153.318 75.3955Q153.911 76.1353 153.911 77.0288L153.911 77.1313L151.963 77.1313L151.963 77.0288Q151.992 76.3843 151.406 75.9082Q150.82 75.4321 149.59 75.4321Q148.14 75.4321 147.151 76.5015Q146.162 77.5708 146.162 79.9438Q146.162 82.3315 147.151 83.4009Q148.14 84.4702 149.59 84.4702Q150.82 84.4702 151.392 83.9941Q151.963 83.5181 151.963 82.8735L151.963 82.771ZM211.626 82.771L213.56 82.771L213.56 82.8735Q213.56 83.6499 212.944 84.4482Q212.329 85.2466 211.318 85.6641Q210.308 86.0815 209.004 86.0815Q206.353 86.0815 204.91 84.3677Q203.467 82.6538 203.467 80.0317Q203.467 77.3511 204.99 75.5859Q206.514 73.8208 208.916 73.8208Q210.234 73.8208 211.311 74.3921Q212.388 74.9634 213.01 76.1719Q213.633 77.3804 213.633 79.5483L213.633 80.1929L205.386 80.1929Q205.386 82.0532 206.389 83.2617Q207.393 84.4702 209.165 84.4702Q210.439 84.4702 211.033 83.9795Q211.626 83.4888 211.626 82.8735L211.626 82.771ZM261.87 82.771L259.937 82.771L259.937 82.8735Q259.937 83.4888 259.343 83.9795Q258.75 84.4702 257.476 84.4702Q255.703 84.4702 254.7 83.2617Q253.696 82.0532 253.696 80.1929L261.943 80.1929L261.943 79.5483Q261.943 77.3804 261.321 76.1719Q260.698 74.9634 259.622 74.3921Q258.545 73.8208 257.227 73.8208Q254.824 73.8208 253.301 75.5859Q251.777 77.3511 251.777 80.0317Q251.777 82.6538 253.22 84.3677Q254.663 86.0815 257.314 86.0815Q258.618 86.0815 259.629 85.6641Q260.64 85.2466 261.255 84.4482Q261.87 83.6499 261.87 82.8735L261.87 82.771ZM293.306 85.7593L291.372 85.7593L291.372 74.1431L293.306 74.1431L293.306 76.1938Q293.789 75.3003 294.353 74.8169Q294.917 74.3335 295.562 74.0771Q296.206 73.8208 296.865 73.8208Q297.466 73.8208 297.905 73.9966L297.905 76.0034Q297.217 75.6665 296.455 75.6665Q295.356 75.6665 294.331 76.626Q293.306 77.5854 293.306 80.0171L293.306 85.7593ZM300.82 82.6978L298.887 82.6978L298.887 82.7271Q298.887 83.7231 299.451 84.4775Q300.015 85.2319 300.959 85.6567Q301.904 86.0815 303.34 86.0815Q305.61 86.0815 306.79 84.9609Q307.969 83.8403 307.969 82.1851Q307.969 81.4819 307.734 80.9546Q307.5 80.4272 307.017 80.0464Q306.665 79.7827 306.313 79.6216Q305.962 79.4604 304.556 79.0503L303.867 78.8599L302.944 78.5962Q301.992 78.3179 301.589 77.981Q301.187 77.644 301.187 77.1021Q301.187 76.3989 301.809 75.9155Q302.432 75.4321 303.589 75.4321Q304.57 75.4321 305.156 75.7617Q305.742 76.0913 305.742 76.6772L305.742 76.7212L307.69 76.7212L307.69 76.6772Q307.69 75.5933 306.775 74.707Q305.859 73.8208 303.691 73.8208Q301.509 73.8208 300.396 74.8608Q299.282 75.9009 299.282 77.2778Q299.282 79.2261 301.582 80.0757L302.915 80.4858L303.574 80.6909L304.556 80.9985Q306.021 81.438 306.021 82.5073Q306.021 83.2983 305.273 83.8843Q304.526 84.4702 303.34 84.4702Q301.978 84.4702 301.399 83.9795Q300.82 83.4888 300.82 82.7271L300.82 82.6978ZM365.156 82.771L363.208 82.771L363.208 82.8735Q363.208 83.5181 362.637 83.9941Q362.065 84.4702 360.835 84.4702Q359.385 84.4702 358.396 83.4009Q357.407 82.3315 357.407 79.9438Q357.407 77.5708 358.396 76.5015Q359.385 75.4321 360.835 75.4321Q362.065 75.4321 362.651 75.9082Q363.237 76.3843 363.208 77.0288L363.208 77.1313L365.156 77.1313L365.156 77.0288Q365.156 76.1353 364.563 75.3955Q363.97 74.6558 363.025 74.2383Q362.08 73.8208 360.732 73.8208Q358.169 73.8208 356.777 75.4468Q355.386 77.0728 355.386 79.9438Q355.386 82.8296 356.777 84.4556Q358.169 86.0815 360.732 86.0815Q362.08 86.0815 363.025 85.6567Q363.97 85.2319 364.563 84.4482Q365.156 83.6646 365.156 82.8735L365.156 82.771ZM382.104 82.771L380.171 82.771L380.171 82.8735Q380.171 83.4888 379.578 83.9795Q378.984 84.4702 377.71 84.4702Q375.938 84.4702 374.934 83.2617Q373.931 82.0532 373.931 80.1929L382.178 80.1929L382.178 79.5483Q382.178 77.3804 381.555 76.1719Q380.933 74.9634 379.856 74.3921Q378.779 73.8208 377.461 73.8208Q375.059 73.8208 373.535 75.5859Q372.012 77.3511 372.012 80.0317Q372.012 82.6538 373.455 84.3677Q374.897 86.0815 377.549 86.0815Q378.853 86.0815 379.863 85.6641Q380.874 85.2466 381.489 84.4482Q382.104 83.6499 382.104 82.8735L382.104 82.771ZM18.4717 76.8823L15.7178 76.8823L15.7178 74.1431L18.4717 74.1431L18.4717 76.8823ZM104.795 85.7593L104.795 83.9136L112.808 79.856L104.795 75.8862L104.795 74.1431L116.411 79.856L104.795 85.7593ZM165.762 74.1431L167.695 74.1431L167.695 85.7593L165.762 85.7593L165.762 74.1431ZM169.482 74.1431L174.214 85.7593L176.147 85.7593L181.025 74.1431L179.092 74.1431L175.298 83.2544L171.562 74.1431L169.482 74.1431ZM288.296 74.1431L286.362 74.1431L286.362 85.7593L288.296 85.7593L288.296 74.1431ZM347.563 85.2612L342.568 74.1431L344.707 74.1431L348.604 82.771L352.236 74.1431L354.185 74.1431L349.292 85.7739Q348.296 88.1177 347.629 88.8867Q346.963 89.6558 346.223 89.9634Q345.483 90.271 344.238 90.271L342.788 90.271L342.788 88.6597L343.872 88.6597Q344.678 88.6597 345.286 88.4473Q345.894 88.2349 346.289 87.7661Q346.685 87.2974 347.358 85.7007L347.563 85.2612ZM205.503 78.7427L211.772 78.7427L211.772 78.5083Q211.772 77.7026 211.384 76.9336Q210.996 76.1646 210.308 75.7983Q209.619 75.4321 208.711 75.4321Q207.627 75.4321 206.711 76.3037Q205.796 77.1753 205.503 78.7427ZM260.083 78.7427L253.813 78.7427Q254.106 77.1753 255.022 76.3037Q255.938 75.4321 257.021 75.4321Q257.93 75.4321 258.618 75.7983Q259.307 76.1646 259.695 76.9336Q260.083 77.7026 260.083 78.5083L260.083 78.7427ZM380.317 78.7427L374.048 78.7427Q374.341 77.1753 375.256 76.3037Q376.172 75.4321 377.256 75.4321Q378.164 75.4321 378.853 75.7983Q379.541 76.1646 379.929 76.9336Q380.317 77.7026 380.317 78.5083L380.317 78.7427ZM189.668 79.8999L189.082 80.0317Q186.138 80.7495 185.317 81.4014Q184.497 82.0532 184.497 82.9468Q184.497 83.4009 184.739 83.7964Q184.98 84.1919 185.464 84.4116Q185.947 84.6313 186.416 84.6313Q187.222 84.6313 188.005 84.1553Q188.789 83.6792 189.229 82.8882Q189.668 82.0972 189.668 81.0425L189.668 79.8999ZM18.4717 85.7593L15.7178 85.7593L15.7178 83.02L18.4717 83.02L18.4717 85.7593ZM98.8916 85.7593L101.646 85.7593L101.646 83.02L98.8916 83.02L98.8916 85.7593Z" />
    </g>
  </g>
</svg>