<?xml version="1.0" encoding="utf-8"?>
<svg width="474px" height="110px" viewBox="0 0 474 110" version="1.1" xmlns:xlink="http://www.w3.org/1999/xlink" xmlns="http://www.w3.org/2000/svg">
  <g id="Join-Discord">
    <path d="M445.61 89.815Q454.85 89.815 459.14 84.315L459.14 88.385L469.81 88.385L469.81 13.255L459.14 13.255L458.92 48.895Q454.52 43.505 445.28 43.505Q436.59 43.505 431.035 50.16Q425.48 56.815 425.48 66.275Q425.48 75.735 430.925 82.775Q436.37 89.815 445.61 89.815ZM98.56 31.075Q100.43 29.205 100.43 26.675Q100.43 24.145 98.56 22.275Q96.69 20.405 94.16 20.405Q91.63 20.405 89.76 22.275Q87.89 24.145 87.89 26.675Q87.89 29.205 89.76 31.075Q91.63 32.945 94.16 32.945Q96.69 32.945 98.56 31.075ZM264.66 26.675Q264.66 29.205 262.79 31.075Q260.92 32.945 258.39 32.945Q255.86 32.945 253.99 31.075Q252.12 29.205 252.12 26.675Q252.12 24.145 253.99 22.275Q255.86 20.405 258.39 20.405Q260.92 20.405 262.79 22.275Q264.66 24.145 264.66 26.675ZM29.15 65.725Q29.15 90.145 11.11 90.145Q4.07 90.145 -1.98 83.875L5.61 75.295Q8.36 79.805 11.55 79.805Q14.74 79.805 16.335 76.725Q17.93 73.645 17.93 63.525L17.93 21.615L29.15 21.615L29.15 65.725ZM213.4 21.615L194.7 21.615L194.7 88.385L213.29 88.385Q227.48 88.385 236.555 78.87Q245.63 69.355 245.63 54.945Q245.63 40.535 236.665 31.075Q227.7 21.615 213.4 21.615ZM209.88 78.155L206.03 78.155L206.03 31.845L209.88 31.845Q233.86 31.845 233.86 55Q233.86 78.155 209.88 78.155ZM81.51 66.605Q81.51 76.835 75.24 83.325Q68.97 89.815 58.795 89.815Q48.62 89.815 42.24 83.325Q35.86 76.835 35.86 66.66Q35.86 56.485 42.13 49.995Q48.4 43.505 58.63 43.505Q68.86 43.505 75.185 49.94Q81.51 56.375 81.51 66.605ZM120.45 48.895Q124.96 43.505 133.76 43.505Q148.72 43.505 148.72 61.875L148.72 88.385L138.16 88.385L138.16 65.395Q138.16 51.645 129.69 51.645Q120.45 51.645 120.45 66.385L120.45 88.385L109.78 88.385L109.78 44.935L120.45 44.935L120.45 48.895ZM289.85 50.655Q293.7 50.655 297.22 53.955L301.62 48.015Q296.45 43.505 287.65 43.505Q281.49 43.505 277.695 47.41Q273.9 51.315 273.9 57.585Q273.9 63.855 284.02 68.255Q285.89 69.025 289.41 70.62Q292.93 72.215 292.93 75.515Q292.93 82.005 286.22 82.005Q281.6 82.005 276.1 76.505L271.37 82.555Q277.42 89.815 286.66 89.815Q293.81 89.815 298.705 85.635Q303.6 81.455 303.6 74.415Q303.6 70.125 301.29 67.21Q298.98 64.295 289.3 60.775Q284.02 58.905 284.02 55.935Q284.02 50.655 289.85 50.655ZM339.9 56.265Q335.83 52.195 330.77 52.195Q324.83 52.195 321.42 56.485Q318.01 60.775 318.01 66.99Q318.01 73.205 321.86 77.165Q325.71 81.125 331.21 81.125Q335.94 81.125 339.9 76.945L339.9 87.175Q335.28 89.815 329.23 89.815Q319.77 89.815 313.5 83.105Q307.23 76.395 307.23 66.715Q307.23 57.035 313.665 50.27Q320.1 43.505 329.78 43.505Q335.5 43.505 339.9 46.255L339.9 56.265ZM384.01 83.325Q390.28 76.835 390.28 66.605Q390.28 56.375 383.955 49.94Q377.63 43.505 367.4 43.505Q357.17 43.505 350.9 49.995Q344.63 56.485 344.63 66.66Q344.63 76.835 351.01 83.325Q357.39 89.815 367.565 89.815Q377.74 89.815 384.01 83.325ZM406.78 49.445Q410.85 43.505 419.54 43.505Q422.29 43.505 424.6 44.605L423.28 54.285Q420.86 52.745 418 52.745Q406.78 52.745 406.78 68.805L406.78 88.385L396.11 88.385L396.11 44.935L406.78 44.935L406.78 49.445ZM88.88 88.385L99.55 88.385L99.55 44.935L88.88 44.935L88.88 88.385ZM263.78 88.385L253.11 88.385L253.11 44.935L263.78 44.935L263.78 88.385ZM46.64 66.825Q46.64 72.875 50.05 76.725Q53.46 80.575 58.85 80.575Q64.24 80.575 67.485 76.45Q70.73 72.325 70.73 66.66Q70.73 60.995 67.43 56.87Q64.13 52.745 58.795 52.745Q53.46 52.745 50.05 56.705Q46.64 60.665 46.64 66.825ZM358.82 76.725Q355.41 72.875 355.41 66.825Q355.41 60.665 358.82 56.705Q362.23 52.745 367.565 52.745Q372.9 52.745 376.2 56.87Q379.5 60.995 379.5 66.66Q379.5 72.325 376.255 76.45Q373.01 80.575 367.62 80.575Q362.23 80.575 358.82 76.725ZM456.83 56.815Q460.35 60.885 460.35 66.605Q460.35 72.765 457.05 76.67Q453.75 80.575 448.47 80.575Q443.19 80.575 439.725 76.56Q436.26 72.545 436.26 66.66Q436.26 60.775 439.835 56.76Q443.41 52.745 448.36 52.745Q453.31 52.745 456.83 56.815Z" />
  </g>
</svg>