<?xml version="1.0" encoding="utf-8"?>
<svg width="781px" height="271px" viewBox="0 0 781 271" version="1.1" xmlns:xlink="http://www.w3.org/1999/xlink" xmlns="http://www.w3.org/2000/svg">
  <defs>
    <path d="M2925 -31L3039 -31L3039 83L2925 83L2925 -31Z" id="path_1" />
    <clipPath id="mask_1">
      <use xlink:href="#path_1" />
    </clipPath>
  </defs>
  <path d="M135.499 0L645.501 0Q648.827 0 652.15 0.163214Q655.472 0.326429 658.782 0.652465Q662.092 0.9785 665.383 1.46657Q668.673 1.95464 671.935 2.60357Q675.198 3.25251 678.424 4.06073Q681.651 4.86896 684.834 5.83454Q688.017 6.80012 691.149 7.92072Q694.281 9.04132 697.354 10.3142Q700.427 11.5872 703.434 13.0094Q706.441 14.4315 709.375 15.9995Q712.308 17.5676 715.161 19.2776Q718.014 20.9877 720.78 22.8357Q723.546 24.6837 726.218 26.6652Q728.889 28.6467 731.461 30.7569Q734.032 32.867 736.496 35.1009Q738.961 37.3347 741.313 39.6867Q743.665 42.0388 745.899 44.5034Q748.133 46.9681 750.243 49.5393Q752.353 52.1106 754.335 54.7823Q756.316 57.454 758.164 60.2198Q760.012 62.9855 761.722 65.8386Q763.432 68.6917 765 71.6252Q766.568 74.5587 767.99 77.5657Q769.413 80.5726 770.686 83.6458Q771.959 86.7189 773.079 89.8508Q774.2 92.9826 775.165 96.1657Q776.131 99.3488 776.939 102.575Q777.747 105.802 778.396 109.064Q779.045 112.327 779.533 115.617Q780.021 118.907 780.348 122.218Q780.674 125.528 780.837 128.85Q781 132.173 781 135.499L781 135.501Q781 138.827 780.837 142.15Q780.674 145.472 780.348 148.782Q780.021 152.093 779.533 155.383Q779.045 158.673 778.396 161.936Q777.747 165.198 776.939 168.425Q776.131 171.651 775.165 174.834Q774.2 178.017 773.079 181.149Q771.959 184.281 770.686 187.354Q769.413 190.427 767.99 193.434Q766.568 196.441 765 199.375Q763.432 202.308 761.722 205.161Q760.012 208.014 758.164 210.78Q756.316 213.546 754.335 216.218Q752.353 218.889 750.243 221.461Q748.133 224.032 745.899 226.497Q743.665 228.961 741.313 231.313Q738.961 233.665 736.497 235.899Q734.032 238.133 731.461 240.243Q728.889 242.353 726.218 244.335Q723.546 246.316 720.78 248.164Q718.014 250.012 715.161 251.722Q712.308 253.432 709.375 255Q706.441 256.568 703.434 257.991Q700.427 259.413 697.354 260.686Q694.281 261.959 691.149 263.079Q688.017 264.2 684.834 265.165Q681.651 266.131 678.424 266.939Q675.198 267.747 671.935 268.396Q668.673 269.045 665.383 269.533Q662.092 270.022 658.782 270.348Q655.472 270.674 652.15 270.837Q648.827 271 645.501 271L135.499 271Q132.173 271 128.85 270.837Q125.528 270.674 122.218 270.348Q118.908 270.022 115.617 269.533Q112.327 269.045 109.064 268.396Q105.802 267.747 102.575 266.939Q99.3488 266.131 96.1657 265.165Q92.9827 264.2 89.8508 263.079Q86.7189 261.959 83.6458 260.686Q80.5727 259.413 77.5657 257.991Q74.5588 256.568 71.6252 255Q68.6917 253.432 65.8386 251.722Q62.9855 250.012 60.2198 248.164Q57.4541 246.316 54.7823 244.335Q52.1106 242.353 49.5393 240.243Q46.9681 238.133 44.5034 235.899Q42.0388 233.665 39.6867 231.313Q37.3347 228.961 35.1009 226.497Q32.8671 224.032 30.7569 221.461Q28.6467 218.889 26.6652 216.218Q24.6837 213.546 22.8357 210.78Q20.9877 208.014 19.2776 205.161Q17.5676 202.308 15.9996 199.375Q14.4315 196.441 13.0094 193.434Q11.5872 190.427 10.3142 187.354Q9.04132 184.281 7.92072 181.149Q6.80012 178.017 5.83454 174.834Q4.86896 171.651 4.06074 168.425Q3.25251 165.198 2.60358 161.936Q1.95464 158.673 1.46657 155.383Q0.9785 152.093 0.652465 148.782Q0.326429 145.472 0.163214 142.15Q0 138.827 0 135.501L0 135.499Q0 132.173 0.163214 128.85Q0.326429 125.528 0.652465 122.218Q0.9785 118.907 1.46657 115.617Q1.95464 112.327 2.60358 109.064Q3.25251 105.802 4.06074 102.575Q4.86896 99.3488 5.83454 96.1657Q6.80012 92.9826 7.92072 89.8507Q9.04132 86.7189 10.3142 83.6458Q11.5872 80.5726 13.0094 77.5657Q14.4315 74.5587 15.9996 71.6252Q17.5676 68.6917 19.2776 65.8386Q20.9877 62.9855 22.8357 60.2198Q24.6837 57.454 26.6652 54.7823Q28.6467 52.1106 30.7569 49.5393Q32.8671 46.9681 35.1009 44.5034Q37.3347 42.0388 39.6867 39.6867Q42.0388 37.3347 44.5034 35.1009Q46.9681 32.867 49.5393 30.7569Q52.1106 28.6467 54.7823 26.6652Q57.4541 24.6837 60.2198 22.8357Q62.9855 20.9877 65.8386 19.2776Q68.6917 17.5676 71.6252 15.9995Q74.5588 14.4315 77.5657 13.0094Q80.5727 11.5872 83.6458 10.3142Q86.7189 9.04132 89.8508 7.92072Q92.9826 6.80012 96.1657 5.83454Q99.3488 4.86896 102.575 4.06073Q105.802 3.25251 109.064 2.60357Q112.327 1.95464 115.617 1.46657Q118.908 0.9785 122.218 0.652465Q125.528 0.326429 128.85 0.163214Q132.173 0 135.499 0Z" id="Rectangle-10" fill="#FFB330" fill-rule="evenodd" stroke="none" />
  <g id="Join-Discord" transform="translate(89 80)">
    <path d="M445.61 89.815Q454.85 89.815 459.14 84.315L459.14 88.385L469.81 88.385L469.81 13.255L459.14 13.255L458.92 48.895Q454.52 43.505 445.28 43.505Q436.59 43.505 431.035 50.16Q425.48 56.815 425.48 66.275Q425.48 75.735 430.925 82.775Q436.37 89.815 445.61 89.815ZM98.56 31.075Q100.43 29.205 100.43 26.675Q100.43 24.145 98.56 22.275Q96.69 20.405 94.16 20.405Q91.63 20.405 89.76 22.275Q87.89 24.145 87.89 26.675Q87.89 29.205 89.76 31.075Q91.63 32.945 94.16 32.945Q96.69 32.945 98.56 31.075ZM264.66 26.675Q264.66 29.205 262.79 31.075Q260.92 32.945 258.39 32.945Q255.86 32.945 253.99 31.075Q252.12 29.205 252.12 26.675Q252.12 24.145 253.99 22.275Q255.86 20.405 258.39 20.405Q260.92 20.405 262.79 22.275Q264.66 24.145 264.66 26.675ZM29.15 65.725Q29.15 90.145 11.11 90.145Q4.07 90.145 -1.98 83.875L5.61 75.295Q8.36 79.805 11.55 79.805Q14.74 79.805 16.335 76.725Q17.93 73.645 17.93 63.525L17.93 21.615L29.15 21.615L29.15 65.725ZM213.4 21.615L194.7 21.615L194.7 88.385L213.29 88.385Q227.48 88.385 236.555 78.87Q245.63 69.355 245.63 54.945Q245.63 40.535 236.665 31.075Q227.7 21.615 213.4 21.615ZM209.88 78.155L206.03 78.155L206.03 31.845L209.88 31.845Q233.86 31.845 233.86 55Q233.86 78.155 209.88 78.155ZM81.51 66.605Q81.51 76.835 75.24 83.325Q68.97 89.815 58.795 89.815Q48.62 89.815 42.24 83.325Q35.86 76.835 35.86 66.66Q35.86 56.485 42.13 49.995Q48.4 43.505 58.63 43.505Q68.86 43.505 75.185 49.94Q81.51 56.375 81.51 66.605ZM120.45 48.895Q124.96 43.505 133.76 43.505Q148.72 43.505 148.72 61.875L148.72 88.385L138.16 88.385L138.16 65.395Q138.16 51.645 129.69 51.645Q120.45 51.645 120.45 66.385L120.45 88.385L109.78 88.385L109.78 44.935L120.45 44.935L120.45 48.895ZM289.85 50.655Q293.7 50.655 297.22 53.955L301.62 48.015Q296.45 43.505 287.65 43.505Q281.49 43.505 277.695 47.41Q273.9 51.315 273.9 57.585Q273.9 63.855 284.02 68.255Q285.89 69.025 289.41 70.62Q292.93 72.215 292.93 75.515Q292.93 82.005 286.22 82.005Q281.6 82.005 276.1 76.505L271.37 82.555Q277.42 89.815 286.66 89.815Q293.81 89.815 298.705 85.635Q303.6 81.455 303.6 74.415Q303.6 70.125 301.29 67.21Q298.98 64.295 289.3 60.775Q284.02 58.905 284.02 55.935Q284.02 50.655 289.85 50.655ZM339.9 56.265Q335.83 52.195 330.77 52.195Q324.83 52.195 321.42 56.485Q318.01 60.775 318.01 66.99Q318.01 73.205 321.86 77.165Q325.71 81.125 331.21 81.125Q335.94 81.125 339.9 76.945L339.9 87.175Q335.28 89.815 329.23 89.815Q319.77 89.815 313.5 83.105Q307.23 76.395 307.23 66.715Q307.23 57.035 313.665 50.27Q320.1 43.505 329.78 43.505Q335.5 43.505 339.9 46.255L339.9 56.265ZM384.01 83.325Q390.28 76.835 390.28 66.605Q390.28 56.375 383.955 49.94Q377.63 43.505 367.4 43.505Q357.17 43.505 350.9 49.995Q344.63 56.485 344.63 66.66Q344.63 76.835 351.01 83.325Q357.39 89.815 367.565 89.815Q377.74 89.815 384.01 83.325ZM406.78 49.445Q410.85 43.505 419.54 43.505Q422.29 43.505 424.6 44.605L423.28 54.285Q420.86 52.745 418 52.745Q406.78 52.745 406.78 68.805L406.78 88.385L396.11 88.385L396.11 44.935L406.78 44.935L406.78 49.445ZM88.88 88.385L99.55 88.385L99.55 44.935L88.88 44.935L88.88 88.385ZM263.78 88.385L253.11 88.385L253.11 44.935L263.78 44.935L263.78 88.385ZM46.64 66.825Q46.64 72.875 50.05 76.725Q53.46 80.575 58.85 80.575Q64.24 80.575 67.485 76.45Q70.73 72.325 70.73 66.66Q70.73 60.995 67.43 56.87Q64.13 52.745 58.795 52.745Q53.46 52.745 50.05 56.705Q46.64 60.665 46.64 66.825ZM358.82 76.725Q355.41 72.875 355.41 66.825Q355.41 60.665 358.82 56.705Q362.23 52.745 367.565 52.745Q372.9 52.745 376.2 56.87Q379.5 60.995 379.5 66.66Q379.5 72.325 376.255 76.45Q373.01 80.575 367.62 80.575Q362.23 80.575 358.82 76.725ZM456.83 56.815Q460.35 60.885 460.35 66.605Q460.35 72.765 457.05 76.67Q453.75 80.575 448.47 80.575Q443.19 80.575 439.725 76.56Q436.26 72.545 436.26 66.66Q436.26 60.775 439.835 56.76Q443.41 52.745 448.36 52.745Q453.31 52.745 456.83 56.815Z" />
  </g>
  <g id="icons8-discord-new" transform="translate(593 75.99996)">
    <path d="M2925 -31L3039 -31L3039 83L2925 83L2925 -31Z" id="Background" fill="none" fill-rule="evenodd" stroke="none" />
    <g clip-path="url(#mask_1)">
      <path d="M2971.91 -7.30308C2971.08 -9.60588 2970.25 -11.9277 2970.23 -11.9581C2969.83 -12.8511 2968.91 -13.4135 2967.94 -13.3147C2967.32 -13.2653 2952.76 -12.0113 2943.42 -4.50628C2938.54 0.000514984 2928.8 26.3497 2928.8 49.1307C2928.8 49.5335 2928.9 49.9249 2929.1 50.2745C2935.83 62.0925 2954.18 65.1857 2958.36 65.3187C2958.39 65.3225 2958.41 65.3225 2958.43 65.3225C2959.17 65.3225 2959.86 64.9691 2960.3 64.3725L2964.82 58.2469C2957.35 57.1107 2956 55.6287 2955.69 55.3969C2954 54.1543 2952.75 52.4139 2954.27 50.2175C2955.43 48.5113 2957.87 47.9489 2959.74 48.9103C2961.65 49.8033 2966.78 52.6761 2982 52.6001C2997.11 52.5545 3003.75 49.3891 3003.84 49.3207C3006.38 48.1769 3008.36 48.6481 3009.6 50.3429C3011.07 52.6495 3010.02 54.2113 3008.34 55.4501C3008.02 55.6819 3007.26 56.3317 2999.23 58.2317L3003.7 64.3687C3004.13 64.9691 3004.83 65.3187 3005.57 65.3187C3005.59 65.3187 3005.62 65.3187 3005.64 65.3149C3009.82 65.1819 3028.17 62.0887 3034.9 50.2707C3035.1 49.9211 3035.2 49.5297 3035.2 49.1269C3035.2 26.3497 3025.46 0.000507355 3020.46 -4.60509C3011.24 -12.0075 2996.68 -13.2615 2996.06 -13.3147C2995.09 -13.3983 2994.17 -12.8473 2993.77 -11.9581C2993.75 -11.9277 2992.94 -9.56789 2992.15 -7.29169C2992.15 -7.29169 2985.96 -8.19988 2982 -8.19988C2978.04 -8.19988 2971.91 -7.30308 2971.91 -7.30308L2971.91 -7.30308ZM2966.8 41.2001C2962.6 41.2001 2959.2 36.1347 2959.2 29.8799C2959.2 23.6251 2962.6 18.5597 2966.8 18.5597C2971.01 17.9327 2974.31 23.6251 2974.4 29.8799C2974.4 36.1347 2971 41.2001 2966.8 41.2001L2966.8 41.2001ZM2997.2 41.2002C2993 41.2002 2989.6 36.1006 2989.6 29.8116C2989.6 23.5226 2993 18.423 2997.2 18.423C3001.4 18.423 3004.8 23.5226 3004.8 29.8116C3004.8 36.1006 3001.4 41.2002 2997.2 41.2002L2997.2 41.2002Z" id="Shape" fill="#000000" fill-rule="evenodd" stroke="none" />
    </g>
  </g>
</svg>