<?xml version="1.0" encoding="utf-8"?>
<svg width="781px" height="271px" viewBox="0 0 781 271" version="1.1" xmlns:xlink="http://www.w3.org/1999/xlink" xmlns="http://www.w3.org/2000/svg">
  <path d="M135.499 0L645.501 0Q648.827 0 652.15 0.163214Q655.472 0.326429 658.782 0.652465Q662.092 0.9785 665.383 1.46657Q668.673 1.95464 671.935 2.60358Q675.198 3.25251 678.424 4.06074Q681.651 4.86896 684.834 5.83454Q688.017 6.80012 691.149 7.92072Q694.281 9.04132 697.354 10.3142Q700.427 11.5872 703.434 13.0094Q706.441 14.4315 709.375 15.9996Q712.308 17.5676 715.161 19.2776Q718.014 20.9877 720.78 22.8357Q723.546 24.6837 726.218 26.6652Q728.889 28.6467 731.461 30.7569Q734.032 32.8671 736.496 35.1009Q738.961 37.3347 741.313 39.6867Q743.665 42.0388 745.899 44.5034Q748.133 46.9681 750.243 49.5393Q752.353 52.1106 754.335 54.7823Q756.316 57.4541 758.164 60.2198Q760.012 62.9855 761.722 65.8386Q763.432 68.6917 765 71.6252Q766.568 74.5588 767.99 77.5657Q769.413 80.5727 770.686 83.6458Q771.959 86.7189 773.079 89.8508Q774.2 92.9826 775.165 96.1657Q776.131 99.3488 776.939 102.575Q777.747 105.802 778.396 109.064Q779.045 112.327 779.533 115.617Q780.021 118.908 780.348 122.218Q780.674 125.528 780.837 128.85Q781 132.173 781 135.499L781 135.501Q781 138.827 780.837 142.15Q780.674 145.472 780.348 148.782Q780.021 152.092 779.533 155.383Q779.045 158.673 778.396 161.936Q777.747 165.198 776.939 168.425Q776.131 171.651 775.165 174.834Q774.2 178.017 773.079 181.149Q771.959 184.281 770.686 187.354Q769.413 190.427 767.99 193.434Q766.568 196.441 765 199.375Q763.432 202.308 761.722 205.161Q760.012 208.014 758.164 210.78Q756.316 213.546 754.335 216.218Q752.353 218.889 750.243 221.461Q748.133 224.032 745.899 226.497Q743.665 228.961 741.313 231.313Q738.961 233.665 736.497 235.899Q734.032 238.133 731.461 240.243Q728.889 242.353 726.218 244.335Q723.546 246.316 720.78 248.164Q718.014 250.012 715.161 251.722Q712.308 253.432 709.375 255Q706.441 256.568 703.434 257.991Q700.427 259.413 697.354 260.686Q694.281 261.959 691.149 263.079Q688.017 264.2 684.834 265.165Q681.651 266.131 678.424 266.939Q675.198 267.747 671.935 268.396Q668.673 269.045 665.383 269.533Q662.092 270.022 658.782 270.348Q655.472 270.674 652.15 270.837Q648.827 271 645.501 271L135.499 271Q132.173 271 128.85 270.837Q125.528 270.674 122.218 270.348Q118.907 270.022 115.617 269.533Q112.327 269.045 109.064 268.396Q105.802 267.747 102.575 266.939Q99.3488 266.131 96.1657 265.165Q92.9826 264.2 89.8507 263.079Q86.7189 261.959 83.6458 260.686Q80.5726 259.413 77.5657 257.991Q74.5587 256.568 71.6252 255Q68.6917 253.432 65.8386 251.722Q62.9855 250.012 60.2198 248.164Q57.454 246.316 54.7823 244.335Q52.1106 242.353 49.5393 240.243Q46.9681 238.133 44.5034 235.899Q42.0388 233.665 39.6867 231.313Q37.3347 228.961 35.1009 226.497Q32.867 224.032 30.7569 221.461Q28.6467 218.889 26.6652 216.218Q24.6837 213.546 22.8357 210.78Q20.9877 208.014 19.2776 205.161Q17.5676 202.308 15.9995 199.375Q14.4315 196.441 13.0094 193.434Q11.5872 190.427 10.3142 187.354Q9.04132 184.281 7.92072 181.149Q6.80012 178.017 5.83454 174.834Q4.86896 171.651 4.06073 168.425Q3.25251 165.198 2.60357 161.936Q1.95464 158.673 1.46657 155.383Q0.9785 152.092 0.652465 148.782Q0.326429 145.472 0.163214 142.15Q0 138.827 0 135.501L0 135.499Q0 132.173 0.163214 128.85Q0.326429 125.528 0.652465 122.218Q0.9785 118.908 1.46657 115.617Q1.95464 112.327 2.60357 109.064Q3.25251 105.802 4.06073 102.575Q4.86896 99.3488 5.83454 96.1657Q6.80012 92.9827 7.92072 89.8508Q9.04132 86.7189 10.3142 83.6458Q11.5872 80.5727 13.0094 77.5657Q14.4315 74.5588 15.9995 71.6252Q17.5676 68.6917 19.2776 65.8386Q20.9877 62.9855 22.8357 60.2198Q24.6837 57.4541 26.6652 54.7823Q28.6467 52.1106 30.7569 49.5393Q32.867 46.9681 35.1009 44.5034Q37.3347 42.0388 39.6867 39.6867Q42.0388 37.3347 44.5034 35.1009Q46.9681 32.8671 49.5393 30.7569Q52.1106 28.6467 54.7823 26.6652Q57.454 24.6837 60.2198 22.8357Q62.9855 20.9877 65.8386 19.2776Q68.6917 17.5676 71.6252 15.9996Q74.5587 14.4315 77.5657 13.0094Q80.5726 11.5872 83.6458 10.3142Q86.7189 9.04132 89.8508 7.92072Q92.9826 6.80012 96.1657 5.83454Q99.3488 4.86896 102.575 4.06074Q105.802 3.25251 109.064 2.60358Q112.327 1.95464 115.617 1.46657Q118.907 0.9785 122.218 0.652465Q125.528 0.326429 128.85 0.163214Q132.173 0 135.499 0Z" id="Rectangle-10" fill="#FFB330" fill-rule="evenodd" stroke="none" />
</svg>