<?xml version="1.0" encoding="utf-8"?>
<svg width="114px" height="114px" viewBox="0 0 114 114" version="1.1" xmlns:xlink="http://www.w3.org/1999/xlink" xmlns="http://www.w3.org/2000/svg">
  <defs>
    <path d="M0 0L114 0L114 114L0 114L0 0Z" id="path_1" />
    <clipPath id="mask_1">
      <use xlink:href="#path_1" />
    </clipPath>
  </defs>
  <g id="icons8-discord-new">
    <path d="M0 0L114 0L114 114L0 114L0 0Z" id="Background" fill="none" fill-rule="evenodd" stroke="none" />
    <g clip-path="url(#mask_1)">
      <path d="M46.9108 23.6969C46.0824 21.3941 45.2464 19.0723 45.2312 19.0419C44.8322 18.1489 43.9088 17.5865 42.936 17.6853C42.3204 17.7347 27.755 18.9887 18.4222 26.4937C13.543 31.0005 3.7998 57.3497 3.7998 80.1307C3.7998 80.5335 3.9024 80.9249 4.10381 81.2745C10.8336 93.0925 29.18 96.1857 33.36 96.3187C33.3866 96.3225 33.4094 96.3225 33.4322 96.3225C34.1694 96.3225 34.861 95.9691 35.3018 95.3725L39.8238 89.2469C32.353 88.1107 31.004 86.6287 30.6886 86.3969C29.0014 85.1543 27.755 83.4139 29.2674 81.2175C30.4302 79.5113 32.8698 78.9489 34.7394 79.9103C36.6546 80.8033 41.7808 83.6761 56.9998 83.6001C72.1124 83.5545 78.7472 80.3891 78.8422 80.3207C81.3806 79.1769 83.3604 79.6481 84.5954 81.3429C86.066 83.6495 85.0172 85.2113 83.3376 86.4501C83.0222 86.6819 82.2584 87.3317 74.2328 89.2317L78.6978 95.3687C79.1348 95.9691 79.8302 96.3187 80.5674 96.3187C80.594 96.3187 80.6168 96.3187 80.6396 96.3149C84.8234 96.1819 103.17 93.0887 109.896 81.2707C110.097 80.9211 110.2 80.5297 110.2 80.1269C110.2 57.3497 100.457 31.0005 95.4558 26.3949C86.2446 18.9925 71.6792 17.7385 71.0636 17.6853C70.0908 17.6017 69.1674 18.1527 68.7684 19.0419C68.7532 19.0723 67.94 21.4321 67.1534 23.7083C67.1534 23.7083 60.9556 22.8001 56.9998 22.8001C53.044 22.8001 46.9108 23.6969 46.9108 23.6969L46.9108 23.6969ZM41.7999 72.2001C37.601 72.2001 34.2 67.1347 34.2 60.8799C34.2 54.6251 37.601 49.5597 41.7999 49.5597C46.0142 48.9327 49.3088 54.6251 49.3999 60.8799C49.3999 67.1347 45.9989 72.2001 41.7999 72.2001L41.7999 72.2001ZM72.1996 72.2002C68.0006 72.2002 64.5996 67.1006 64.5996 60.8116C64.5996 54.5226 68.0006 49.423 72.1996 49.423C76.3986 49.423 79.7996 54.5226 79.7996 60.8116C79.7996 67.1006 76.3986 72.2002 72.1996 72.2002L72.1996 72.2002Z" id="Shape" fill="#000000" fill-rule="evenodd" stroke="none" />
    </g>
  </g>
</svg>